<svg xmlns="http://www.w3.org/2000/svg" xmlns:xlink="http://www.w3.org/1999/xlink" width="48" zoomAndPan="magnify" viewBox="0 0 36 36.000001" height="48" preserveAspectRatio="xMidYMid meet" version="1.2"><g id="e1d3f85cf3"><path style=" stroke:none;fill-rule:nonzero;fill:#ffa69e;fill-opacity:1;" d="M 17.890625 22.191406 C 15.84375 22.1875 13.847656 21.554688 12.167969 20.382812 C 10.492188 19.207031 9.21875 17.546875 8.515625 15.621094 C 7.8125 13.699219 7.71875 11.605469 8.246094 9.628906 C 8.773438 7.648438 9.898438 5.878906 11.460938 4.5625 C 13.027344 3.242188 14.960938 2.433594 17 2.25 C 19.039062 2.066406 21.085938 2.511719 22.863281 3.53125 C 24.640625 4.546875 26.0625 6.085938 26.933594 7.9375 C 27.808594 9.789062 28.09375 11.863281 27.746094 13.882812 L 26.644531 13.695312 C 26.726562 13.195312 26.769531 12.695312 26.769531 12.1875 C 26.769531 10.003906 25.960938 7.894531 24.5 6.269531 C 23.039062 4.644531 21.03125 3.613281 18.859375 3.375 C 16.6875 3.140625 14.503906 3.714844 12.726562 4.988281 C 10.953125 6.261719 9.707031 8.144531 9.238281 10.28125 C 8.765625 12.414062 9.097656 14.648438 10.167969 16.550781 C 11.242188 18.457031 12.980469 19.894531 15.050781 20.597656 C 17.121094 21.300781 19.375 21.214844 21.386719 20.355469 C 23.394531 19.496094 25.015625 17.925781 25.941406 15.945312 L 26.953125 16.421875 C 26.144531 18.140625 24.863281 19.597656 23.257812 20.617188 C 21.65625 21.640625 19.792969 22.183594 17.890625 22.191406 Z M 17.890625 22.191406 "/><path style=" stroke:none;fill-rule:nonzero;fill:#ffa69e;fill-opacity:1;" d="M 11.90625 32.832031 C 10.011719 32.832031 8.15625 32.296875 6.554688 31.28125 C 4.953125 30.269531 3.671875 28.820312 2.863281 27.105469 C 2.054688 25.390625 1.75 23.480469 1.984375 21.601562 C 2.21875 19.71875 2.984375 17.945312 4.1875 16.484375 C 5.394531 15.019531 6.992188 13.929688 8.792969 13.339844 C 10.59375 12.753906 12.527344 12.6875 14.363281 13.15625 C 16.199219 13.621094 17.867188 14.601562 19.167969 15.980469 C 20.46875 17.359375 21.351562 19.078125 21.710938 20.941406 L 20.609375 21.152344 C 20.183594 18.9375 18.929688 16.964844 17.101562 15.640625 C 15.273438 14.316406 13.011719 13.738281 10.773438 14.019531 C 8.535156 14.304688 6.488281 15.429688 5.046875 17.167969 C 3.605469 18.90625 2.882812 21.125 3.023438 23.378906 C 3.160156 25.628906 4.152344 27.746094 5.792969 29.292969 C 7.433594 30.84375 9.601562 31.710938 11.859375 31.714844 C 14.117188 31.722656 16.292969 30.871094 17.941406 29.332031 C 19.59375 27.792969 20.597656 25.683594 20.75 23.433594 L 21.867188 23.507812 C 21.699219 26.035156 20.574219 28.402344 18.726562 30.136719 C 16.878906 31.867188 14.441406 32.828125 11.90625 32.832031 Z M 11.90625 32.832031 "/><path style=" stroke:none;fill-rule:nonzero;fill:#ffa69e;fill-opacity:1;" d="M 24.09375 32.707031 C 22.339844 32.703125 20.617188 32.242188 19.097656 31.363281 C 17.582031 30.484375 16.320312 29.222656 15.445312 27.703125 C 14.570312 26.183594 14.109375 24.457031 14.109375 22.703125 C 14.109375 20.949219 14.574219 19.226562 15.449219 17.710938 C 15.550781 17.539062 15.652344 17.367188 15.761719 17.207031 L 16.699219 17.820312 C 16.601562 17.96875 16.507812 18.117188 16.421875 18.269531 C 15.3125 20.199219 14.964844 22.472656 15.453125 24.640625 C 15.941406 26.8125 17.226562 28.71875 19.054688 29.988281 C 20.882812 31.253906 23.121094 31.785156 25.324219 31.480469 C 27.527344 31.175781 29.535156 30.054688 30.949219 28.335938 C 32.363281 26.621094 33.082031 24.433594 32.960938 22.214844 C 32.839844 19.992188 31.890625 17.898438 30.296875 16.34375 C 28.703125 14.792969 26.585938 13.894531 24.363281 13.832031 C 22.140625 13.765625 19.972656 14.539062 18.292969 16 L 17.558594 15.152344 C 18.777344 14.09375 20.238281 13.347656 21.808594 12.976562 C 23.382812 12.601562 25.019531 12.617188 26.585938 13.015625 C 28.148438 13.417969 29.59375 14.191406 30.796875 15.269531 C 31.996094 16.347656 32.917969 17.703125 33.484375 19.21875 C 34.046875 20.730469 34.234375 22.359375 34.03125 23.960938 C 33.828125 25.566406 33.242188 27.09375 32.316406 28.421875 C 31.394531 29.746094 30.164062 30.828125 28.734375 31.574219 C 27.300781 32.320312 25.707031 32.710938 24.09375 32.707031 Z M 24.09375 32.707031 "/></g></svg>