<svg xmlns="http://www.w3.org/2000/svg" xmlns:xlink="http://www.w3.org/1999/xlink" width="48" zoomAndPan="magnify" viewBox="0 0 36 36.000001" height="48" preserveAspectRatio="xMidYMid meet" version="1.0"><defs><clipPath id="13f06bc03f"><path d="M 14 0.472656 L 23 0.472656 L 23 5 L 14 5 Z M 14 0.472656 " clip-rule="nonzero"/></clipPath><clipPath id="1c29c4b039"><path d="M 17 0.472656 L 20 0.472656 L 20 34.769531 L 17 34.769531 Z M 17 0.472656 " clip-rule="nonzero"/></clipPath><clipPath id="1f44dbb7a7"><path d="M 22 6 L 32.816406 6 L 32.816406 34 L 22 34 Z M 22 6 " clip-rule="nonzero"/></clipPath><clipPath id="b16aef35a7"><path d="M 4 7 L 20 7 L 20 34.769531 L 4 34.769531 Z M 4 7 " clip-rule="nonzero"/></clipPath></defs><g clip-path="url(#13f06bc03f)"><path fill="#00bf63" d="M 15.359375 4.742188 C 15.199219 4.738281 15.0625 4.683594 14.949219 4.570312 C 14.839844 4.457031 14.78125 4.320312 14.78125 4.164062 C 14.78125 4.003906 14.839844 3.867188 14.949219 3.753906 L 18.039062 0.667969 C 18.148438 0.554688 18.285156 0.496094 18.445312 0.496094 C 18.605469 0.496094 18.742188 0.554688 18.855469 0.667969 L 21.941406 3.753906 C 22.046875 3.867188 22.101562 4.003906 22.097656 4.15625 C 22.09375 4.3125 22.039062 4.445312 21.929688 4.558594 C 21.816406 4.667969 21.683594 4.722656 21.527344 4.726562 C 21.371094 4.730469 21.238281 4.675781 21.125 4.570312 L 18.445312 1.902344 L 15.769531 4.574219 C 15.65625 4.6875 15.519531 4.742188 15.359375 4.742188 Z M 15.359375 4.742188 " fill-opacity="1" fill-rule="nonzero"/></g><g clip-path="url(#1c29c4b039)"><path fill="#00bf63" d="M 18.445312 34.519531 C 18.285156 34.519531 18.148438 34.464844 18.035156 34.351562 C 17.925781 34.238281 17.867188 34.101562 17.867188 33.941406 L 17.867188 1.074219 C 17.867188 0.914062 17.925781 0.78125 18.035156 0.667969 C 18.148438 0.554688 18.285156 0.496094 18.445312 0.496094 C 18.605469 0.496094 18.742188 0.554688 18.855469 0.667969 C 18.96875 0.78125 19.023438 0.914062 19.023438 1.074219 L 19.023438 33.925781 C 19.03125 34.089844 18.976562 34.226562 18.859375 34.34375 C 18.746094 34.460938 18.609375 34.519531 18.445312 34.519531 Z M 18.445312 34.519531 " fill-opacity="1" fill-rule="nonzero"/></g><path fill="#00bf63" d="M 21.152344 23.070312 C 20.894531 23.070312 20.714844 22.953125 20.617188 22.714844 C 20.519531 22.476562 20.558594 22.265625 20.742188 22.085938 L 23.828125 18.996094 C 23.941406 18.886719 24.078125 18.828125 24.238281 18.828125 C 24.398438 18.828125 24.535156 18.886719 24.648438 18.996094 L 27.734375 22.085938 C 27.851562 22.195312 27.914062 22.332031 27.917969 22.496094 C 27.921875 22.660156 27.863281 22.800781 27.746094 22.917969 C 27.632812 23.03125 27.492188 23.089844 27.328125 23.085938 C 27.164062 23.082031 27.027344 23.023438 26.914062 22.902344 L 24.238281 20.226562 L 21.5625 22.902344 C 21.449219 23.015625 21.3125 23.070312 21.152344 23.070312 Z M 21.152344 23.070312 " fill-opacity="1" fill-rule="nonzero"/><path fill="#00bf63" d="M 24.234375 33.238281 C 24.074219 33.238281 23.9375 33.183594 23.824219 33.070312 C 23.710938 32.957031 23.65625 32.820312 23.65625 32.660156 L 23.65625 19.40625 C 23.65625 19.246094 23.710938 19.109375 23.824219 18.996094 C 23.9375 18.882812 24.074219 18.828125 24.234375 18.828125 C 24.394531 18.828125 24.53125 18.882812 24.644531 18.996094 C 24.757812 19.109375 24.8125 19.246094 24.8125 19.40625 L 24.8125 32.660156 C 24.8125 32.820312 24.757812 32.957031 24.644531 33.070312 C 24.53125 33.183594 24.394531 33.238281 24.234375 33.238281 Z M 24.234375 33.238281 " fill-opacity="1" fill-rule="nonzero"/><path fill="#00bf63" d="M 15.449219 18.140625 C 15.289062 18.140625 15.152344 18.085938 15.039062 17.972656 L 12.363281 15.292969 L 9.6875 17.972656 C 9.574219 18.082031 9.4375 18.140625 9.277344 18.140625 C 9.121094 18.140625 8.984375 18.082031 8.871094 17.972656 C 8.757812 17.859375 8.699219 17.722656 8.699219 17.5625 C 8.699219 17.402344 8.757812 17.265625 8.871094 17.152344 L 11.957031 14.066406 C 12.070312 13.953125 12.207031 13.898438 12.367188 13.898438 C 12.527344 13.898438 12.664062 13.953125 12.777344 14.066406 L 15.863281 17.152344 C 16.046875 17.335938 16.089844 17.546875 15.992188 17.785156 C 15.890625 18.023438 15.714844 18.140625 15.457031 18.140625 Z M 15.449219 18.140625 " fill-opacity="1" fill-rule="nonzero"/><path fill="#00bf63" d="M 12.367188 33.097656 C 12.207031 33.097656 12.070312 33.039062 11.957031 32.925781 C 11.84375 32.8125 11.785156 32.675781 11.785156 32.515625 L 11.785156 14.476562 C 11.785156 14.316406 11.84375 14.179688 11.957031 14.066406 C 12.070312 13.953125 12.207031 13.898438 12.367188 13.898438 C 12.523438 13.898438 12.660156 13.953125 12.773438 14.066406 C 12.886719 14.179688 12.945312 14.316406 12.945312 14.476562 L 12.945312 32.515625 C 12.945312 32.675781 12.886719 32.8125 12.773438 32.925781 C 12.660156 33.039062 12.523438 33.097656 12.367188 33.097656 Z M 12.367188 33.097656 " fill-opacity="1" fill-rule="nonzero"/><g clip-path="url(#1f44dbb7a7)"><path fill="#00bf63" d="M 24.234375 33.238281 C 24.097656 33.238281 23.976562 33.195312 23.871094 33.109375 C 23.765625 33.027344 23.699219 32.917969 23.667969 32.785156 C 23.640625 32.652344 23.65625 32.523438 23.714844 32.402344 C 23.777344 32.28125 23.867188 32.191406 23.992188 32.136719 C 25.164062 31.589844 26.234375 30.886719 27.203125 30.023438 C 28.167969 29.164062 28.988281 28.179688 29.664062 27.074219 C 30.339844 25.96875 30.839844 24.789062 31.167969 23.539062 C 31.492188 22.285156 31.628906 21.011719 31.578125 19.714844 C 31.527344 18.421875 31.289062 17.164062 30.867188 15.941406 C 30.441406 14.71875 29.851562 13.582031 29.089844 12.53125 C 28.328125 11.484375 27.433594 10.570312 26.402344 9.785156 C 25.371094 9.003906 24.246094 8.386719 23.035156 7.9375 C 22.867188 7.894531 22.742188 7.800781 22.660156 7.648438 C 22.578125 7.496094 22.566406 7.339844 22.621094 7.179688 C 22.679688 7.015625 22.789062 6.902344 22.949219 6.835938 C 23.109375 6.773438 23.265625 6.777344 23.417969 6.851562 C 24.078125 7.09375 24.710938 7.386719 25.328125 7.722656 C 25.941406 8.0625 26.527344 8.441406 27.085938 8.863281 C 27.640625 9.289062 28.167969 9.75 28.65625 10.25 C 29.148438 10.753906 29.597656 11.285156 30.007812 11.855469 C 30.421875 12.421875 30.789062 13.015625 31.113281 13.636719 C 31.433594 14.257812 31.710938 14.898438 31.941406 15.5625 C 32.171875 16.222656 32.351562 16.898438 32.480469 17.589844 C 32.609375 18.277344 32.6875 18.972656 32.71875 19.671875 C 32.746094 20.371094 32.722656 21.070312 32.644531 21.765625 C 32.570312 22.464844 32.445312 23.148438 32.269531 23.828125 C 32.09375 24.507812 31.867188 25.167969 31.59375 25.8125 C 31.320312 26.457031 31 27.078125 30.632812 27.675781 C 30.269531 28.277344 29.863281 28.84375 29.414062 29.382812 C 28.964844 29.917969 28.480469 30.421875 27.957031 30.886719 C 27.433594 31.355469 26.878906 31.78125 26.292969 32.164062 C 25.707031 32.550781 25.097656 32.890625 24.460938 33.183594 C 24.390625 33.21875 24.3125 33.238281 24.234375 33.238281 Z M 24.234375 33.238281 " fill-opacity="1" fill-rule="nonzero"/></g><g clip-path="url(#b16aef35a7)"><path fill="#00bf63" d="M 18.445312 34.519531 C 17.625 34.523438 16.8125 34.457031 16.003906 34.320312 C 15.195312 34.179688 14.40625 33.976562 13.632812 33.703125 C 12.863281 33.429688 12.117188 33.09375 11.402344 32.691406 C 10.6875 32.289062 10.015625 31.828125 9.378906 31.3125 C 8.742188 30.792969 8.15625 30.226562 7.621094 29.609375 C 7.082031 28.988281 6.601562 28.328125 6.175781 27.628906 C 5.753906 26.925781 5.390625 26.195312 5.09375 25.429688 C 4.796875 24.667969 4.566406 23.882812 4.402344 23.082031 C 4.242188 22.277344 4.148438 21.464844 4.125 20.648438 C 4.101562 19.828125 4.148438 19.011719 4.265625 18.203125 C 4.382812 17.390625 4.570312 16.59375 4.824219 15.816406 C 5.078125 15.035156 5.394531 14.285156 5.78125 13.5625 C 6.164062 12.835938 6.605469 12.152344 7.109375 11.503906 C 7.609375 10.855469 8.164062 10.253906 8.769531 9.703125 C 9.375 9.148438 10.023438 8.652344 10.710938 8.210938 C 11.402344 7.769531 12.125 7.390625 12.882812 7.074219 C 13.03125 7.011719 13.179688 7.011719 13.328125 7.070312 C 13.476562 7.132812 13.582031 7.238281 13.644531 7.382812 C 13.707031 7.53125 13.707031 7.679688 13.644531 7.828125 C 13.585938 7.976562 13.480469 8.082031 13.332031 8.144531 C 12.640625 8.433594 11.976562 8.78125 11.339844 9.1875 C 10.707031 9.59375 10.109375 10.050781 9.554688 10.558594 C 9 11.066406 8.488281 11.617188 8.027344 12.214844 C 7.566406 12.808594 7.160156 13.4375 6.808594 14.105469 C 6.457031 14.769531 6.164062 15.460938 5.929688 16.175781 C 5.695312 16.890625 5.527344 17.621094 5.417969 18.367188 C 5.3125 19.113281 5.269531 19.863281 5.289062 20.613281 C 5.308594 21.367188 5.394531 22.113281 5.546875 22.851562 C 5.695312 23.589844 5.90625 24.308594 6.179688 25.007812 C 6.453125 25.710938 6.785156 26.382812 7.175781 27.027344 C 7.5625 27.671875 8.003906 28.28125 8.5 28.847656 C 8.992188 29.417969 9.53125 29.9375 10.117188 30.414062 C 10.699219 30.890625 11.320312 31.3125 11.976562 31.679688 C 12.632812 32.050781 13.316406 32.359375 14.023438 32.609375 C 14.734375 32.863281 15.460938 33.050781 16.203125 33.175781 C 16.945312 33.304688 17.691406 33.363281 18.445312 33.363281 C 18.605469 33.363281 18.742188 33.417969 18.855469 33.53125 C 18.96875 33.644531 19.023438 33.78125 19.023438 33.941406 C 19.023438 34.101562 18.96875 34.238281 18.855469 34.351562 C 18.742188 34.464844 18.605469 34.519531 18.445312 34.519531 Z M 18.445312 34.519531 " fill-opacity="1" fill-rule="nonzero"/></g></svg>