<svg xmlns="http://www.w3.org/2000/svg" xmlns:xlink="http://www.w3.org/1999/xlink" width="48" zoomAndPan="magnify" viewBox="0 0 36 36.000001" height="48" preserveAspectRatio="xMidYMid meet" version="1.2"><g id="dd96895149"><path style=" stroke:none;fill-rule:nonzero;fill:#ffffff;fill-opacity:1;" d="M 6.621094 8.78125 L 16.125 3.292969 L 16.6875 4.265625 L 7.183594 9.753906 Z M 6.621094 8.78125 "/><path style=" stroke:none;fill-rule:nonzero;fill:#ffffff;fill-opacity:1;" d="M 19.308594 4.265625 L 19.867188 3.292969 L 29.378906 8.785156 L 28.816406 9.753906 Z M 19.308594 4.265625 "/><path style=" stroke:none;fill-rule:nonzero;fill:#ffffff;fill-opacity:1;" d="M 30.125 12.023438 L 31.246094 12.023438 L 31.246094 23 L 30.125 23 Z M 30.125 12.023438 "/><path style=" stroke:none;fill-rule:nonzero;fill:#ffffff;fill-opacity:1;" d="M 19.308594 30.753906 L 28.820312 25.265625 L 29.378906 26.234375 L 19.871094 31.726562 Z M 19.308594 30.753906 "/><path style=" stroke:none;fill-rule:nonzero;fill:#ffffff;fill-opacity:1;" d="M 6.621094 26.238281 L 7.179688 25.269531 L 16.6875 30.757812 L 16.128906 31.730469 Z M 6.621094 26.238281 "/><path style=" stroke:none;fill-rule:nonzero;fill:#ffffff;fill-opacity:1;" d="M 4.753906 12.023438 L 5.875 12.023438 L 5.875 23 L 4.753906 23 Z M 4.753906 12.023438 "/><path style=" stroke:none;fill-rule:nonzero;fill:#ffffff;fill-opacity:1;" d="M 6.621094 11.589844 L 7.183594 10.617188 L 16.6875 16.105469 L 16.128906 17.078125 Z M 6.621094 11.589844 "/><path style=" stroke:none;fill-rule:nonzero;fill:#ffffff;fill-opacity:1;" d="M 17.996094 19.90625 C 17.523438 19.90625 17.058594 19.765625 16.664062 19.503906 C 16.269531 19.238281 15.964844 18.867188 15.78125 18.425781 C 15.601562 17.988281 15.554688 17.507812 15.644531 17.042969 C 15.738281 16.578125 15.964844 16.148438 16.300781 15.816406 C 16.636719 15.480469 17.0625 15.25 17.527344 15.160156 C 17.992188 15.066406 18.476562 15.113281 18.914062 15.296875 C 19.351562 15.476562 19.726562 15.785156 19.988281 16.179688 C 20.253906 16.574219 20.394531 17.035156 20.394531 17.511719 C 20.394531 18.144531 20.140625 18.753906 19.691406 19.203125 C 19.242188 19.652344 18.632812 19.90625 17.996094 19.90625 Z M 17.996094 16.234375 C 17.746094 16.234375 17.496094 16.308594 17.289062 16.449219 C 17.078125 16.589844 16.914062 16.789062 16.816406 17.023438 C 16.722656 17.253906 16.695312 17.511719 16.746094 17.757812 C 16.792969 18.007812 16.914062 18.234375 17.09375 18.414062 C 17.273438 18.589844 17.5 18.710938 17.746094 18.761719 C 17.996094 18.8125 18.25 18.785156 18.484375 18.6875 C 18.71875 18.59375 18.917969 18.429688 19.058594 18.21875 C 19.199219 18.007812 19.273438 17.761719 19.273438 17.511719 C 19.273438 17.171875 19.136719 16.847656 18.898438 16.609375 C 18.660156 16.367188 18.335938 16.234375 17.996094 16.234375 Z M 17.996094 16.234375 "/><path style=" stroke:none;fill-rule:nonzero;fill:#ffffff;fill-opacity:1;" d="M 5.3125 12.582031 C 4.839844 12.582031 4.375 12.441406 3.980469 12.179688 C 3.585938 11.917969 3.28125 11.542969 3.097656 11.105469 C 2.917969 10.664062 2.871094 10.183594 2.960938 9.71875 C 3.054688 9.253906 3.28125 8.828125 3.617188 8.492188 C 3.953125 8.15625 4.378906 7.929688 4.84375 7.835938 C 5.308594 7.742188 5.792969 7.792969 6.230469 7.972656 C 6.667969 8.152344 7.042969 8.460938 7.304688 8.855469 C 7.570312 9.25 7.710938 9.710938 7.710938 10.1875 C 7.707031 10.820312 7.457031 11.429688 7.007812 11.878906 C 6.558594 12.328125 5.949219 12.582031 5.3125 12.582031 Z M 5.3125 8.910156 C 5.058594 8.910156 4.8125 8.984375 4.605469 9.125 C 4.394531 9.265625 4.230469 9.464844 4.132812 9.699219 C 4.039062 9.929688 4.011719 10.1875 4.0625 10.4375 C 4.109375 10.683594 4.230469 10.910156 4.410156 11.089844 C 4.589844 11.265625 4.816406 11.390625 5.0625 11.4375 C 5.3125 11.488281 5.566406 11.460938 5.800781 11.367188 C 6.035156 11.269531 6.234375 11.105469 6.375 10.894531 C 6.511719 10.6875 6.589844 10.4375 6.589844 10.1875 C 6.589844 9.847656 6.453125 9.523438 6.214844 9.285156 C 5.976562 9.046875 5.652344 8.910156 5.3125 8.910156 Z M 5.3125 8.910156 "/><path style=" stroke:none;fill-rule:nonzero;fill:#ffffff;fill-opacity:1;" d="M 5.3125 27.234375 C 4.839844 27.234375 4.375 27.09375 3.980469 26.828125 C 3.585938 26.566406 3.28125 26.191406 3.097656 25.753906 C 2.917969 25.316406 2.867188 24.835938 2.960938 24.367188 C 3.054688 23.902344 3.28125 23.476562 3.617188 23.140625 C 3.953125 22.804688 4.378906 22.578125 4.84375 22.484375 C 5.308594 22.394531 5.792969 22.441406 6.230469 22.621094 C 6.667969 22.804688 7.042969 23.109375 7.304688 23.503906 C 7.570312 23.898438 7.710938 24.363281 7.710938 24.835938 C 7.707031 25.472656 7.457031 26.082031 7.007812 26.53125 C 6.558594 26.980469 5.949219 27.234375 5.3125 27.234375 Z M 5.3125 23.5625 C 5.058594 23.5625 4.8125 23.636719 4.605469 23.777344 C 4.394531 23.917969 4.230469 24.113281 4.132812 24.347656 C 4.035156 24.582031 4.011719 24.839844 4.0625 25.085938 C 4.109375 25.332031 4.230469 25.5625 4.410156 25.738281 C 4.589844 25.917969 4.816406 26.039062 5.0625 26.089844 C 5.3125 26.136719 5.566406 26.113281 5.800781 26.015625 C 6.035156 25.917969 6.234375 25.753906 6.375 25.546875 C 6.515625 25.335938 6.589844 25.089844 6.589844 24.835938 C 6.589844 24.5 6.453125 24.175781 6.214844 23.933594 C 5.976562 23.695312 5.652344 23.5625 5.3125 23.5625 Z M 5.3125 23.5625 "/><path style=" stroke:none;fill-rule:nonzero;fill:#ffffff;fill-opacity:1;" d="M 18 34.558594 C 17.527344 34.558594 17.0625 34.417969 16.667969 34.152344 C 16.273438 33.890625 15.96875 33.515625 15.785156 33.078125 C 15.605469 32.640625 15.558594 32.15625 15.648438 31.691406 C 15.742188 31.226562 15.96875 30.800781 16.304688 30.464844 C 16.640625 30.128906 17.066406 29.902344 17.53125 29.808594 C 17.996094 29.714844 18.480469 29.765625 18.917969 29.945312 C 19.355469 30.128906 19.730469 30.433594 19.992188 30.828125 C 20.257812 31.222656 20.398438 31.6875 20.398438 32.160156 C 20.394531 32.796875 20.144531 33.40625 19.695312 33.855469 C 19.246094 34.304688 18.636719 34.554688 18 34.558594 Z M 18 30.882812 C 17.746094 30.882812 17.5 30.960938 17.292969 31.097656 C 17.082031 31.238281 16.917969 31.4375 16.820312 31.671875 C 16.722656 31.90625 16.699219 32.160156 16.75 32.410156 C 16.796875 32.65625 16.917969 32.882812 17.097656 33.0625 C 17.277344 33.242188 17.503906 33.363281 17.75 33.410156 C 18 33.460938 18.253906 33.4375 18.488281 33.339844 C 18.722656 33.242188 18.921875 33.078125 19.0625 32.871094 C 19.203125 32.660156 19.277344 32.414062 19.277344 32.160156 C 19.277344 31.820312 19.140625 31.496094 18.902344 31.257812 C 18.664062 31.019531 18.339844 30.882812 18 30.882812 Z M 18 30.882812 "/><path style=" stroke:none;fill-rule:nonzero;fill:#ffffff;fill-opacity:1;" d="M 30.6875 27.234375 C 30.214844 27.234375 29.75 27.09375 29.355469 26.828125 C 28.960938 26.566406 28.652344 26.191406 28.472656 25.753906 C 28.292969 25.316406 28.242188 24.832031 28.335938 24.367188 C 28.429688 23.902344 28.65625 23.476562 28.992188 23.140625 C 29.328125 22.804688 29.753906 22.578125 30.21875 22.484375 C 30.683594 22.394531 31.167969 22.441406 31.605469 22.621094 C 32.042969 22.804688 32.417969 23.109375 32.679688 23.503906 C 32.945312 23.898438 33.085938 24.363281 33.085938 24.835938 C 33.082031 25.472656 32.832031 26.082031 32.382812 26.53125 C 31.933594 26.980469 31.324219 27.234375 30.6875 27.234375 Z M 30.6875 23.5625 C 30.433594 23.5625 30.1875 23.636719 29.976562 23.777344 C 29.769531 23.917969 29.605469 24.117188 29.507812 24.347656 C 29.410156 24.582031 29.386719 24.839844 29.4375 25.085938 C 29.484375 25.332031 29.605469 25.5625 29.785156 25.738281 C 29.964844 25.917969 30.191406 26.039062 30.4375 26.089844 C 30.6875 26.136719 30.941406 26.113281 31.175781 26.015625 C 31.410156 25.917969 31.609375 25.753906 31.75 25.546875 C 31.886719 25.335938 31.964844 25.089844 31.964844 24.835938 C 31.964844 24.5 31.828125 24.175781 31.589844 23.933594 C 31.351562 23.695312 31.027344 23.5625 30.6875 23.5625 Z M 30.6875 23.5625 "/><path style=" stroke:none;fill-rule:nonzero;fill:#ffffff;fill-opacity:1;" d="M 17.996094 5.261719 C 17.523438 5.261719 17.058594 5.125 16.664062 4.859375 C 16.269531 4.597656 15.964844 4.222656 15.78125 3.785156 C 15.601562 3.347656 15.554688 2.863281 15.644531 2.398438 C 15.738281 1.933594 15.964844 1.507812 16.300781 1.171875 C 16.636719 0.835938 17.0625 0.609375 17.527344 0.515625 C 17.992188 0.421875 18.476562 0.46875 18.914062 0.652344 C 19.351562 0.832031 19.726562 1.140625 19.988281 1.535156 C 20.253906 1.929688 20.394531 2.390625 20.394531 2.867188 C 20.394531 3.503906 20.140625 4.109375 19.691406 4.5625 C 19.242188 5.011719 18.632812 5.261719 17.996094 5.261719 Z M 17.996094 1.589844 C 17.746094 1.589844 17.496094 1.664062 17.289062 1.804688 C 17.078125 1.945312 16.914062 2.144531 16.816406 2.378906 C 16.722656 2.613281 16.695312 2.867188 16.746094 3.117188 C 16.792969 3.363281 16.914062 3.589844 17.09375 3.769531 C 17.273438 3.949219 17.5 4.070312 17.746094 4.117188 C 17.996094 4.167969 18.25 4.140625 18.484375 4.046875 C 18.71875 3.949219 18.917969 3.785156 19.058594 3.574219 C 19.199219 3.367188 19.273438 3.117188 19.273438 2.867188 C 19.273438 2.527344 19.136719 2.203125 18.898438 1.964844 C 18.660156 1.726562 18.335938 1.589844 17.996094 1.589844 Z M 17.996094 1.589844 "/><path style=" stroke:none;fill-rule:nonzero;fill:#ffffff;fill-opacity:1;" d="M 30.6875 12.582031 C 30.214844 12.582031 29.75 12.441406 29.355469 12.179688 C 28.960938 11.914062 28.65625 11.542969 28.472656 11.105469 C 28.292969 10.664062 28.246094 10.183594 28.335938 9.71875 C 28.429688 9.253906 28.65625 8.828125 28.992188 8.492188 C 29.328125 8.15625 29.753906 7.929688 30.21875 7.835938 C 30.683594 7.742188 31.167969 7.792969 31.605469 7.972656 C 32.042969 8.152344 32.417969 8.460938 32.679688 8.855469 C 32.945312 9.25 33.085938 9.710938 33.085938 10.1875 C 33.082031 10.820312 32.832031 11.429688 32.382812 11.878906 C 31.933594 12.328125 31.324219 12.582031 30.6875 12.582031 Z M 30.6875 8.910156 C 30.433594 8.910156 30.1875 8.984375 29.980469 9.125 C 29.769531 9.265625 29.605469 9.464844 29.507812 9.699219 C 29.414062 9.933594 29.386719 10.1875 29.4375 10.4375 C 29.484375 10.683594 29.605469 10.910156 29.785156 11.089844 C 29.964844 11.265625 30.191406 11.390625 30.4375 11.4375 C 30.6875 11.488281 30.941406 11.460938 31.175781 11.367188 C 31.410156 11.269531 31.609375 11.105469 31.75 10.894531 C 31.890625 10.6875 31.964844 10.4375 31.964844 10.1875 C 31.964844 9.847656 31.828125 9.523438 31.589844 9.285156 C 31.351562 9.046875 31.027344 8.910156 30.6875 8.910156 Z M 30.6875 8.910156 "/><path style=" stroke:none;fill-rule:nonzero;fill:#ffffff;fill-opacity:1;" d="M 17.4375 19.347656 L 18.558594 19.347656 L 18.558594 30.324219 L 17.4375 30.324219 Z M 17.4375 19.347656 "/><path style=" stroke:none;fill-rule:nonzero;fill:#ffffff;fill-opacity:1;" d="M 19.308594 16.105469 L 28.816406 10.617188 L 29.378906 11.585938 L 19.867188 17.078125 Z M 19.308594 16.105469 "/><path style=" stroke:none;fill-rule:nonzero;fill:#ffffff;fill-opacity:1;" d="M 27.34375 23.554688 L 27.902344 22.582031 L 29.359375 23.421875 L 28.796875 24.394531 Z M 27.34375 23.554688 "/><path style=" stroke:none;fill-rule:nonzero;fill:#ffffff;fill-opacity:1;" d="M 22.957031 21.023438 L 23.519531 20.050781 L 25.710938 21.316406 L 25.148438 22.289062 Z M 22.957031 21.023438 "/><path style=" stroke:none;fill-rule:nonzero;fill:#ffffff;fill-opacity:1;" d="M 19.308594 18.914062 L 19.871094 17.945312 L 21.324219 18.785156 L 20.765625 19.757812 Z M 19.308594 18.914062 "/><path style=" stroke:none;fill-rule:nonzero;fill:#ffffff;fill-opacity:1;" d="M 17.4375 4.703125 L 18.558594 4.703125 L 18.558594 6.382812 L 17.4375 6.382812 Z M 17.4375 4.703125 "/><path style=" stroke:none;fill-rule:nonzero;fill:#ffffff;fill-opacity:1;" d="M 17.4375 8.921875 L 18.558594 8.921875 L 18.558594 11.457031 L 17.4375 11.457031 Z M 17.4375 8.921875 "/><path style=" stroke:none;fill-rule:nonzero;fill:#ffffff;fill-opacity:1;" d="M 17.4375 13.992188 L 18.558594 13.992188 L 18.558594 15.671875 L 17.4375 15.671875 Z M 17.4375 13.992188 "/><path style=" stroke:none;fill-rule:nonzero;fill:#ffffff;fill-opacity:1;" d="M 6.613281 23.441406 L 8.070312 22.597656 L 8.632812 23.570312 L 7.175781 24.410156 Z M 6.613281 23.441406 "/><path style=" stroke:none;fill-rule:nonzero;fill:#ffffff;fill-opacity:1;" d="M 10.269531 21.328125 L 12.46875 20.0625 L 13.027344 21.03125 L 10.828125 22.300781 Z M 10.269531 21.328125 "/><path style=" stroke:none;fill-rule:nonzero;fill:#ffffff;fill-opacity:1;" d="M 14.667969 18.792969 L 16.121094 17.953125 L 16.683594 18.921875 L 15.226562 19.761719 Z M 14.667969 18.792969 "/></g></svg>