<svg xmlns="http://www.w3.org/2000/svg" xmlns:xlink="http://www.w3.org/1999/xlink" width="48" zoomAndPan="magnify" viewBox="0 0 36 36.000001" height="48" preserveAspectRatio="xMidYMid meet" version="1.2"><g id="8681774c42"><path style=" stroke:none;fill-rule:nonzero;fill:#ffffff;fill-opacity:1;" d="M 13.914062 13.988281 L 5.742188 13.988281 C 5.59375 13.988281 5.449219 13.929688 5.34375 13.824219 C 5.238281 13.71875 5.179688 13.574219 5.179688 13.425781 L 5.179688 5.253906 C 5.179688 5.105469 5.238281 4.964844 5.34375 4.859375 C 5.449219 4.753906 5.59375 4.695312 5.742188 4.695312 L 13.914062 4.695312 C 14.0625 4.695312 14.203125 4.753906 14.308594 4.859375 C 14.414062 4.964844 14.472656 5.105469 14.472656 5.253906 L 14.472656 13.425781 C 14.472656 13.574219 14.414062 13.71875 14.308594 13.824219 C 14.203125 13.929688 14.0625 13.988281 13.914062 13.988281 Z M 6.300781 12.867188 L 13.351562 12.867188 L 13.351562 5.816406 L 6.300781 5.816406 Z M 6.300781 12.867188 "/><path style=" stroke:none;fill-rule:nonzero;fill:#ffffff;fill-opacity:1;" d="M 22.085938 13.988281 L 13.914062 13.988281 C 13.765625 13.988281 13.621094 13.929688 13.519531 13.824219 C 13.414062 13.71875 13.351562 13.574219 13.351562 13.425781 L 13.351562 5.253906 C 13.351562 5.105469 13.414062 4.964844 13.519531 4.859375 C 13.621094 4.753906 13.765625 4.695312 13.914062 4.695312 L 22.085938 4.695312 C 22.234375 4.695312 22.378906 4.753906 22.480469 4.859375 C 22.585938 4.964844 22.648438 5.105469 22.648438 5.253906 L 22.648438 13.425781 C 22.648438 13.574219 22.585938 13.71875 22.480469 13.824219 C 22.378906 13.929688 22.234375 13.988281 22.085938 13.988281 Z M 14.472656 12.867188 L 21.527344 12.867188 L 21.527344 5.816406 L 14.472656 5.816406 Z M 14.472656 12.867188 "/><path style=" stroke:none;fill-rule:nonzero;fill:#ffffff;fill-opacity:1;" d="M 30.257812 13.988281 L 22.085938 13.988281 C 21.9375 13.988281 21.796875 13.929688 21.691406 13.824219 C 21.585938 13.71875 21.527344 13.574219 21.527344 13.425781 L 21.527344 5.253906 C 21.527344 5.105469 21.585938 4.964844 21.691406 4.859375 C 21.796875 4.753906 21.9375 4.695312 22.085938 4.695312 L 30.257812 4.695312 C 30.40625 4.695312 30.550781 4.753906 30.65625 4.859375 C 30.761719 4.964844 30.820312 5.105469 30.820312 5.253906 L 30.820312 13.425781 C 30.820312 13.574219 30.761719 13.71875 30.65625 13.824219 C 30.550781 13.929688 30.40625 13.988281 30.257812 13.988281 Z M 22.648438 12.867188 L 29.699219 12.867188 L 29.699219 5.816406 L 22.648438 5.816406 Z M 22.648438 12.867188 "/><path style=" stroke:none;fill-rule:nonzero;fill:#ffffff;fill-opacity:1;" d="M 13.914062 22.160156 L 5.742188 22.160156 C 5.59375 22.160156 5.449219 22.101562 5.34375 21.996094 C 5.238281 21.890625 5.179688 21.75 5.179688 21.601562 L 5.179688 13.429688 C 5.179688 13.28125 5.238281 13.136719 5.34375 13.03125 C 5.449219 12.925781 5.59375 12.867188 5.742188 12.867188 L 13.914062 12.867188 C 14.0625 12.867188 14.203125 12.925781 14.308594 13.03125 C 14.414062 13.136719 14.472656 13.28125 14.472656 13.429688 L 14.472656 21.601562 C 14.472656 21.75 14.414062 21.890625 14.308594 21.996094 C 14.203125 22.101562 14.0625 22.160156 13.914062 22.160156 Z M 6.300781 21.039062 L 13.351562 21.039062 L 13.351562 13.988281 L 6.300781 13.988281 Z M 6.300781 21.039062 "/><path style=" stroke:none;fill-rule:nonzero;fill:#ffffff;fill-opacity:1;" d="M 22.085938 22.160156 L 13.914062 22.160156 C 13.765625 22.160156 13.621094 22.101562 13.519531 21.996094 C 13.414062 21.890625 13.351562 21.75 13.351562 21.601562 L 13.351562 13.429688 C 13.351562 13.28125 13.414062 13.136719 13.519531 13.03125 C 13.621094 12.925781 13.765625 12.867188 13.914062 12.867188 L 22.085938 12.867188 C 22.234375 12.867188 22.378906 12.925781 22.480469 13.03125 C 22.585938 13.136719 22.648438 13.28125 22.648438 13.429688 L 22.648438 21.601562 C 22.648438 21.75 22.585938 21.890625 22.480469 21.996094 C 22.378906 22.101562 22.234375 22.160156 22.085938 22.160156 Z M 14.472656 21.039062 L 21.527344 21.039062 L 21.527344 13.988281 L 14.472656 13.988281 Z M 14.472656 21.039062 "/><path style=" stroke:none;fill-rule:nonzero;fill:#ffffff;fill-opacity:1;" d="M 30.257812 22.160156 L 22.085938 22.160156 C 21.9375 22.160156 21.796875 22.101562 21.691406 21.996094 C 21.585938 21.890625 21.527344 21.75 21.527344 21.601562 L 21.527344 13.429688 C 21.527344 13.28125 21.585938 13.136719 21.691406 13.03125 C 21.796875 12.925781 21.9375 12.867188 22.085938 12.867188 L 30.257812 12.867188 C 30.40625 12.867188 30.550781 12.925781 30.65625 13.03125 C 30.761719 13.136719 30.820312 13.28125 30.820312 13.429688 L 30.820312 21.601562 C 30.820312 21.75 30.761719 21.890625 30.65625 21.996094 C 30.550781 22.101562 30.40625 22.160156 30.257812 22.160156 Z M 22.648438 21.039062 L 29.699219 21.039062 L 29.699219 13.988281 L 22.648438 13.988281 Z M 22.648438 21.039062 "/><path style=" stroke:none;fill-rule:nonzero;fill:#ffffff;fill-opacity:1;" d="M 13.914062 30.332031 L 5.742188 30.332031 C 5.59375 30.332031 5.449219 30.273438 5.34375 30.167969 C 5.238281 30.0625 5.179688 29.921875 5.179688 29.773438 L 5.179688 21.601562 C 5.179688 21.453125 5.238281 21.308594 5.34375 21.203125 C 5.449219 21.097656 5.59375 21.039062 5.742188 21.039062 L 13.914062 21.039062 C 14.0625 21.039062 14.203125 21.097656 14.308594 21.203125 C 14.414062 21.308594 14.472656 21.453125 14.472656 21.601562 L 14.472656 29.773438 C 14.472656 29.921875 14.414062 30.0625 14.308594 30.167969 C 14.203125 30.273438 14.0625 30.332031 13.914062 30.332031 Z M 6.300781 29.210938 L 13.351562 29.210938 L 13.351562 22.160156 L 6.300781 22.160156 Z M 6.300781 29.210938 "/><path style=" stroke:none;fill-rule:nonzero;fill:#ffffff;fill-opacity:1;" d="M 22.085938 30.332031 L 13.914062 30.332031 C 13.765625 30.332031 13.621094 30.273438 13.519531 30.167969 C 13.414062 30.0625 13.351562 29.921875 13.351562 29.773438 L 13.351562 21.601562 C 13.351562 21.453125 13.414062 21.308594 13.519531 21.203125 C 13.621094 21.097656 13.765625 21.039062 13.914062 21.039062 L 22.085938 21.039062 C 22.234375 21.039062 22.378906 21.097656 22.480469 21.203125 C 22.585938 21.308594 22.648438 21.453125 22.648438 21.601562 L 22.648438 29.773438 C 22.648438 29.921875 22.585938 30.0625 22.480469 30.167969 C 22.378906 30.273438 22.234375 30.332031 22.085938 30.332031 Z M 14.472656 29.210938 L 21.527344 29.210938 L 21.527344 22.160156 L 14.472656 22.160156 Z M 14.472656 29.210938 "/><path style=" stroke:none;fill-rule:nonzero;fill:#ffffff;fill-opacity:1;" d="M 30.257812 30.332031 L 22.085938 30.332031 C 21.9375 30.332031 21.796875 30.273438 21.691406 30.167969 C 21.585938 30.0625 21.527344 29.921875 21.527344 29.773438 L 21.527344 21.601562 C 21.527344 21.453125 21.585938 21.308594 21.691406 21.203125 C 21.796875 21.097656 21.9375 21.039062 22.085938 21.039062 L 30.257812 21.039062 C 30.40625 21.039062 30.550781 21.097656 30.65625 21.203125 C 30.761719 21.308594 30.820312 21.453125 30.820312 21.601562 L 30.820312 29.773438 C 30.820312 29.921875 30.761719 30.0625 30.65625 30.167969 C 30.550781 30.273438 30.40625 30.332031 30.257812 30.332031 Z M 22.648438 29.210938 L 29.699219 29.210938 L 29.699219 22.160156 L 22.648438 22.160156 Z M 22.648438 29.210938 "/><path style=" stroke:none;fill-rule:nonzero;fill:#ffffff;fill-opacity:1;" d="M 5.890625 30.3125 L 5.59375 29.230469 C 5.703125 29.199219 16.976562 25.996094 17.441406 17.484375 C 17.949219 8.164062 29.613281 4.851562 30.109375 4.714844 L 30.40625 5.792969 C 30.292969 5.828125 19.023438 9.035156 18.558594 17.546875 C 18.050781 26.863281 6.386719 30.175781 5.890625 30.3125 Z M 5.890625 30.3125 "/></g></svg>