<svg xmlns="http://www.w3.org/2000/svg" xmlns:xlink="http://www.w3.org/1999/xlink" width="48" zoomAndPan="magnify" viewBox="0 0 36 36.000001" height="48" preserveAspectRatio="xMidYMid meet" version="1.2"><defs><clipPath id="1331e2747c"><path d="M 2 0 L 33 0 L 33 35.027344 L 2 35.027344 Z M 2 0 "/></clipPath></defs><g id="1f04667cb6"><g clip-rule="nonzero" clip-path="url(#1331e2747c)"><path style=" stroke:none;fill-rule:nonzero;fill:#ffffff;fill-opacity:1;" d="M 27.304688 35.027344 L 13.074219 35.027344 C 12.929688 35.027344 12.789062 34.96875 12.6875 34.867188 C 12.585938 34.765625 12.527344 34.625 12.527344 34.480469 L 12.527344 27.363281 L 8.695312 27.363281 C 7.96875 27.363281 7.273438 27.074219 6.761719 26.5625 C 6.25 26.050781 5.960938 25.355469 5.960938 24.628906 L 5.960938 21.890625 L 3.90625 21.890625 C 3.578125 21.890625 3.257812 21.800781 2.980469 21.632812 C 2.699219 21.460938 2.472656 21.214844 2.324219 20.925781 C 2.175781 20.632812 2.109375 20.308594 2.132812 19.980469 C 2.15625 19.65625 2.273438 19.339844 2.460938 19.074219 L 5.960938 12.988281 C 5.984375 11.21875 6.359375 9.472656 7.074219 7.855469 C 7.785156 6.234375 8.8125 4.777344 10.101562 3.5625 C 11.40625 2.328125 12.953125 1.375 14.644531 0.765625 C 16.335938 0.15625 18.136719 -0.09375 19.929688 0.0273438 C 23.140625 0.257812 26.160156 1.648438 28.421875 3.945312 C 30.679688 6.238281 32.03125 9.277344 32.214844 12.492188 C 32.300781 14.214844 32.046875 15.941406 31.464844 17.566406 C 30.882812 19.191406 29.984375 20.683594 28.820312 21.960938 C 28.191406 22.65625 27.847656 23.5625 27.851562 24.5 L 27.851562 31.195312 C 27.851562 31.339844 27.792969 31.480469 27.691406 31.582031 C 27.589844 31.6875 27.449219 31.742188 27.304688 31.742188 C 27.160156 31.742188 27.019531 31.6875 26.917969 31.582031 C 26.8125 31.480469 26.757812 31.339844 26.757812 31.195312 L 26.757812 24.5 C 26.75 23.289062 27.199219 22.121094 28.011719 21.222656 C 29.078125 20.054688 29.902344 18.683594 30.433594 17.195312 C 30.96875 15.707031 31.203125 14.125 31.121094 12.542969 C 30.953125 9.597656 29.714844 6.8125 27.644531 4.710938 C 25.570312 2.605469 22.804688 1.332031 19.859375 1.117188 C 18.21875 1.011719 16.570312 1.246094 15.023438 1.804688 C 13.472656 2.359375 12.054688 3.226562 10.855469 4.355469 C 9.65625 5.480469 8.699219 6.839844 8.046875 8.351562 C 7.390625 9.859375 7.054688 11.488281 7.054688 13.136719 C 7.054688 13.230469 7.027344 13.324219 6.980469 13.410156 L 3.394531 19.648438 C 3.386719 19.667969 3.375 19.683594 3.359375 19.703125 C 3.285156 19.804688 3.238281 19.925781 3.226562 20.050781 C 3.214844 20.179688 3.238281 20.304688 3.296875 20.417969 C 3.351562 20.53125 3.4375 20.628906 3.546875 20.695312 C 3.65625 20.761719 3.78125 20.796875 3.90625 20.796875 L 6.507812 20.796875 C 6.652344 20.796875 6.792969 20.855469 6.894531 20.957031 C 6.996094 21.058594 7.054688 21.199219 7.054688 21.34375 L 7.054688 24.628906 C 7.054688 25.0625 7.226562 25.480469 7.535156 25.789062 C 7.84375 26.097656 8.261719 26.269531 8.695312 26.269531 L 13.074219 26.269531 C 13.21875 26.269531 13.359375 26.328125 13.460938 26.429688 C 13.5625 26.535156 13.621094 26.671875 13.621094 26.816406 L 13.621094 33.933594 L 26.757812 33.933594 L 26.757812 33.386719 C 26.757812 33.238281 26.8125 33.101562 26.917969 33 C 27.019531 32.894531 27.160156 32.839844 27.304688 32.839844 C 27.449219 32.839844 27.589844 32.894531 27.691406 33 C 27.792969 33.101562 27.851562 33.238281 27.851562 33.386719 L 27.851562 34.480469 C 27.851562 34.625 27.792969 34.765625 27.691406 34.867188 C 27.589844 34.96875 27.449219 35.027344 27.304688 35.027344 Z M 27.304688 35.027344 "/></g><path style=" stroke:none;fill-rule:nonzero;fill:#ffffff;fill-opacity:1;" d="M 16.90625 21.34375 C 16.761719 21.34375 16.621094 21.285156 16.519531 21.183594 C 16.414062 21.082031 16.359375 20.941406 16.359375 20.796875 L 16.359375 18.972656 C 15.21875 18.480469 14.246094 17.667969 13.5625 16.628906 C 12.882812 15.59375 12.523438 14.375 12.527344 13.136719 C 12.527344 11.394531 13.21875 9.722656 14.449219 8.492188 C 15.683594 7.257812 17.351562 6.566406 19.09375 6.566406 C 20.835938 6.566406 22.507812 7.257812 23.738281 8.492188 C 24.96875 9.722656 25.664062 11.394531 25.664062 13.136719 C 25.671875 14.089844 25.457031 15.035156 25.042969 15.894531 C 24.628906 16.753906 24.019531 17.507812 23.265625 18.097656 C 23.210938 18.140625 23.144531 18.175781 23.078125 18.199219 C 23.007812 18.21875 22.933594 18.226562 22.859375 18.21875 C 22.789062 18.210938 22.71875 18.1875 22.65625 18.152344 C 22.589844 18.121094 22.535156 18.070312 22.488281 18.015625 C 22.445312 17.957031 22.410156 17.894531 22.390625 17.824219 C 22.371094 17.753906 22.367188 17.679688 22.375 17.609375 C 22.382812 17.535156 22.40625 17.464844 22.441406 17.402344 C 22.480469 17.339844 22.527344 17.285156 22.585938 17.238281 C 23.207031 16.753906 23.710938 16.128906 24.054688 15.417969 C 24.398438 14.707031 24.574219 13.925781 24.566406 13.136719 C 24.566406 11.683594 23.992188 10.292969 22.964844 9.265625 C 21.9375 8.238281 20.546875 7.664062 19.09375 7.664062 C 17.644531 7.664062 16.25 8.238281 15.226562 9.265625 C 14.199219 10.292969 13.621094 11.683594 13.621094 13.136719 C 13.621094 14.21875 13.957031 15.277344 14.578125 16.167969 C 15.203125 17.054688 16.085938 17.730469 17.105469 18.097656 C 17.207031 18.136719 17.296875 18.207031 17.359375 18.300781 C 17.417969 18.390625 17.453125 18.496094 17.453125 18.609375 L 17.453125 20.097656 L 20.738281 19.273438 L 20.738281 18.609375 C 20.738281 18.464844 20.792969 18.324219 20.898438 18.222656 C 21 18.117188 21.136719 18.0625 21.285156 18.0625 C 21.429688 18.0625 21.566406 18.117188 21.671875 18.222656 C 21.773438 18.324219 21.832031 18.464844 21.832031 18.609375 L 21.832031 19.703125 C 21.832031 19.824219 21.789062 19.941406 21.714844 20.039062 C 21.640625 20.136719 21.535156 20.203125 21.417969 20.234375 L 17.039062 21.328125 C 16.996094 21.339844 16.949219 21.34375 16.90625 21.34375 Z M 16.90625 21.34375 "/><path style=" stroke:none;fill-rule:nonzero;fill:#ffffff;fill-opacity:1;" d="M 16.90625 22.988281 C 16.773438 22.988281 16.644531 22.9375 16.542969 22.847656 C 16.441406 22.761719 16.378906 22.636719 16.363281 22.507812 C 16.347656 22.375 16.378906 22.238281 16.453125 22.128906 C 16.53125 22.019531 16.644531 21.941406 16.773438 21.910156 L 21.152344 20.8125 C 21.222656 20.796875 21.292969 20.792969 21.367188 20.800781 C 21.4375 20.8125 21.503906 20.835938 21.566406 20.875 C 21.628906 20.910156 21.683594 20.957031 21.726562 21.015625 C 21.769531 21.074219 21.800781 21.140625 21.820312 21.210938 C 21.835938 21.28125 21.839844 21.351562 21.828125 21.425781 C 21.820312 21.496094 21.792969 21.566406 21.757812 21.625 C 21.71875 21.6875 21.671875 21.742188 21.613281 21.785156 C 21.554688 21.828125 21.488281 21.859375 21.417969 21.875 L 17.039062 22.96875 C 16.996094 22.980469 16.949219 22.988281 16.90625 22.988281 Z M 16.90625 22.988281 "/><path style=" stroke:none;fill-rule:nonzero;fill:#ffffff;fill-opacity:1;" d="M 16.90625 24.628906 C 16.773438 24.628906 16.644531 24.578125 16.542969 24.492188 C 16.441406 24.402344 16.378906 24.28125 16.363281 24.148438 C 16.347656 24.015625 16.378906 23.882812 16.453125 23.769531 C 16.53125 23.660156 16.644531 23.582031 16.773438 23.550781 L 21.152344 22.457031 C 21.222656 22.4375 21.292969 22.433594 21.367188 22.445312 C 21.4375 22.453125 21.503906 22.476562 21.566406 22.515625 C 21.628906 22.550781 21.683594 22.601562 21.726562 22.660156 C 21.769531 22.714844 21.800781 22.78125 21.820312 22.851562 C 21.835938 22.921875 21.839844 22.996094 21.828125 23.066406 C 21.820312 23.136719 21.792969 23.207031 21.757812 23.269531 C 21.71875 23.332031 21.671875 23.382812 21.613281 23.425781 C 21.554688 23.46875 21.488281 23.5 21.417969 23.515625 L 17.039062 24.613281 C 16.996094 24.621094 16.949219 24.628906 16.90625 24.628906 Z M 16.90625 24.628906 "/><path style=" stroke:none;fill-rule:nonzero;fill:#ffffff;fill-opacity:1;" d="M 19.09375 25.722656 C 18.660156 25.722656 18.242188 25.550781 17.933594 25.242188 C 17.625 24.933594 17.453125 24.515625 17.453125 24.082031 C 17.453125 23.9375 17.511719 23.796875 17.613281 23.695312 C 17.714844 23.589844 17.855469 23.535156 18 23.535156 C 18.144531 23.535156 18.285156 23.589844 18.386719 23.695312 C 18.488281 23.796875 18.546875 23.9375 18.546875 24.082031 C 18.546875 24.226562 18.605469 24.367188 18.707031 24.46875 C 18.808594 24.570312 18.949219 24.628906 19.09375 24.628906 C 19.238281 24.628906 19.378906 24.570312 19.480469 24.46875 C 19.585938 24.367188 19.640625 24.226562 19.640625 24.082031 L 19.640625 23.535156 C 19.640625 23.386719 19.699219 23.25 19.800781 23.148438 C 19.90625 23.042969 20.042969 22.988281 20.1875 22.988281 C 20.335938 22.988281 20.472656 23.042969 20.574219 23.148438 C 20.679688 23.25 20.738281 23.386719 20.738281 23.535156 L 20.738281 24.082031 C 20.738281 24.515625 20.5625 24.933594 20.253906 25.242188 C 19.949219 25.550781 19.53125 25.722656 19.09375 25.722656 Z M 19.09375 25.722656 "/><path style=" stroke:none;fill-rule:nonzero;fill:#ffffff;fill-opacity:1;" d="M 19.640625 19.15625 L 18.546875 19.15625 C 18.429688 19.15625 18.3125 19.117188 18.21875 19.046875 C 18.121094 18.972656 18.054688 18.871094 18.019531 18.757812 L 16.925781 14.925781 C 16.898438 14.824219 16.898438 14.71875 16.929688 14.617188 C 16.960938 14.515625 17.019531 14.421875 17.101562 14.355469 C 17.183594 14.289062 17.285156 14.246094 17.390625 14.234375 C 17.496094 14.222656 17.601562 14.238281 17.699219 14.289062 C 18.136719 14.519531 18.605469 14.6875 19.09375 14.777344 C 19.582031 14.6875 20.054688 14.519531 20.492188 14.289062 C 20.585938 14.238281 20.695312 14.222656 20.800781 14.234375 C 20.90625 14.246094 21.003906 14.289062 21.085938 14.355469 C 21.167969 14.421875 21.226562 14.515625 21.257812 14.617188 C 21.289062 14.71875 21.292969 14.824219 21.261719 14.925781 L 20.167969 18.757812 C 20.136719 18.871094 20.066406 18.972656 19.972656 19.046875 C 19.875 19.117188 19.761719 19.15625 19.640625 19.15625 Z M 18.960938 18.0625 L 19.230469 18.0625 L 19.898438 15.714844 C 19.640625 15.804688 19.371094 15.859375 19.09375 15.871094 C 18.820312 15.859375 18.546875 15.804688 18.289062 15.714844 Z M 18.960938 18.0625 "/><path style=" stroke:none;fill-rule:nonzero;fill:#ffffff;fill-opacity:1;" d="M 19.09375 5.472656 C 18.949219 5.472656 18.808594 5.414062 18.707031 5.3125 C 18.605469 5.210938 18.546875 5.070312 18.546875 4.925781 L 18.546875 4.378906 C 18.546875 4.234375 18.605469 4.09375 18.707031 3.992188 C 18.808594 3.890625 18.949219 3.832031 19.09375 3.832031 C 19.238281 3.832031 19.378906 3.890625 19.480469 3.992188 C 19.585938 4.09375 19.640625 4.234375 19.640625 4.378906 L 19.640625 4.925781 C 19.640625 5.070312 19.585938 5.210938 19.480469 5.3125 C 19.378906 5.414062 19.238281 5.472656 19.09375 5.472656 Z M 19.09375 5.472656 "/><path style=" stroke:none;fill-rule:nonzero;fill:#ffffff;fill-opacity:1;" d="M 14.988281 6.574219 C 14.894531 6.574219 14.800781 6.546875 14.714844 6.5 C 14.632812 6.453125 14.5625 6.382812 14.515625 6.300781 L 14.242188 5.824219 C 14.207031 5.761719 14.179688 5.695312 14.171875 5.621094 C 14.160156 5.550781 14.167969 5.476562 14.183594 5.410156 C 14.203125 5.339844 14.234375 5.273438 14.277344 5.214844 C 14.324219 5.160156 14.378906 5.109375 14.441406 5.074219 C 14.503906 5.039062 14.570312 5.015625 14.644531 5.007812 C 14.714844 4.996094 14.789062 5 14.855469 5.019531 C 14.925781 5.039062 14.992188 5.070312 15.050781 5.117188 C 15.105469 5.160156 15.152344 5.214844 15.191406 5.277344 L 15.464844 5.753906 C 15.511719 5.835938 15.535156 5.929688 15.535156 6.027344 C 15.535156 6.121094 15.511719 6.214844 15.464844 6.300781 C 15.414062 6.382812 15.347656 6.453125 15.261719 6.5 C 15.179688 6.546875 15.085938 6.574219 14.988281 6.574219 Z M 14.988281 6.574219 "/><path style=" stroke:none;fill-rule:nonzero;fill:#ffffff;fill-opacity:1;" d="M 11.984375 9.578125 C 11.886719 9.578125 11.792969 9.550781 11.710938 9.503906 L 11.238281 9.230469 C 11.175781 9.195312 11.121094 9.148438 11.074219 9.089844 C 11.03125 9.035156 11 8.96875 10.980469 8.898438 C 10.960938 8.828125 10.957031 8.757812 10.964844 8.683594 C 10.972656 8.613281 10.996094 8.542969 11.035156 8.480469 C 11.070312 8.417969 11.117188 8.363281 11.175781 8.320312 C 11.230469 8.277344 11.296875 8.246094 11.367188 8.226562 C 11.4375 8.207031 11.511719 8.203125 11.582031 8.210938 C 11.652344 8.222656 11.722656 8.246094 11.785156 8.28125 L 12.257812 8.554688 C 12.363281 8.617188 12.445312 8.710938 12.492188 8.820312 C 12.535156 8.933594 12.542969 9.054688 12.511719 9.171875 C 12.480469 9.289062 12.414062 9.390625 12.316406 9.464844 C 12.222656 9.539062 12.105469 9.578125 11.984375 9.578125 Z M 11.984375 9.578125 "/><path style=" stroke:none;fill-rule:nonzero;fill:#ffffff;fill-opacity:1;" d="M 10.886719 13.683594 L 10.335938 13.683594 C 10.191406 13.683594 10.054688 13.625 9.949219 13.523438 C 9.847656 13.417969 9.789062 13.28125 9.789062 13.136719 C 9.789062 12.988281 9.847656 12.851562 9.949219 12.75 C 10.054688 12.644531 10.191406 12.585938 10.335938 12.585938 L 10.886719 12.585938 C 11.03125 12.585938 11.167969 12.644531 11.273438 12.75 C 11.375 12.851562 11.433594 12.988281 11.433594 13.136719 C 11.433594 13.28125 11.375 13.417969 11.273438 13.523438 C 11.167969 13.625 11.03125 13.683594 10.886719 13.683594 Z M 10.886719 13.683594 "/><path style=" stroke:none;fill-rule:nonzero;fill:#ffffff;fill-opacity:1;" d="M 11.511719 18.0625 C 11.390625 18.0625 11.273438 18.019531 11.179688 17.949219 C 11.082031 17.875 11.015625 17.773438 10.984375 17.65625 C 10.953125 17.539062 10.960938 17.414062 11.007812 17.304688 C 11.050781 17.191406 11.132812 17.101562 11.238281 17.039062 L 11.710938 16.765625 C 11.773438 16.730469 11.84375 16.707031 11.914062 16.695312 C 11.984375 16.6875 12.058594 16.691406 12.128906 16.710938 C 12.199219 16.726562 12.265625 16.757812 12.320312 16.804688 C 12.378906 16.847656 12.425781 16.902344 12.460938 16.964844 C 12.5 17.027344 12.523438 17.097656 12.53125 17.167969 C 12.539062 17.238281 12.535156 17.3125 12.515625 17.382812 C 12.5 17.449219 12.464844 17.515625 12.421875 17.574219 C 12.378906 17.628906 12.320312 17.679688 12.257812 17.714844 L 11.785156 17.988281 C 11.703125 18.035156 11.609375 18.0625 11.511719 18.0625 Z M 11.511719 18.0625 "/><path style=" stroke:none;fill-rule:nonzero;fill:#ffffff;fill-opacity:1;" d="M 26.675781 18.0625 C 26.582031 18.0625 26.488281 18.035156 26.402344 17.988281 L 25.929688 17.714844 C 25.867188 17.679688 25.8125 17.628906 25.769531 17.574219 C 25.722656 17.515625 25.691406 17.449219 25.671875 17.382812 C 25.652344 17.3125 25.648438 17.238281 25.65625 17.167969 C 25.667969 17.097656 25.691406 17.027344 25.726562 16.964844 C 25.761719 16.902344 25.808594 16.847656 25.867188 16.804688 C 25.925781 16.757812 25.992188 16.726562 26.058594 16.710938 C 26.128906 16.691406 26.203125 16.6875 26.273438 16.695312 C 26.347656 16.707031 26.414062 16.730469 26.476562 16.765625 L 26.949219 17.039062 C 27.054688 17.101562 27.136719 17.191406 27.183594 17.304688 C 27.230469 17.414062 27.238281 17.539062 27.207031 17.65625 C 27.175781 17.773438 27.105469 17.875 27.011719 17.949219 C 26.914062 18.019531 26.796875 18.0625 26.675781 18.0625 Z M 26.675781 18.0625 "/><path style=" stroke:none;fill-rule:nonzero;fill:#ffffff;fill-opacity:1;" d="M 27.851562 13.683594 L 27.304688 13.683594 C 27.160156 13.683594 27.019531 13.625 26.917969 13.523438 C 26.8125 13.417969 26.757812 13.28125 26.757812 13.136719 C 26.757812 12.988281 26.8125 12.851562 26.917969 12.75 C 27.019531 12.644531 27.160156 12.585938 27.304688 12.585938 L 27.851562 12.585938 C 27.996094 12.585938 28.136719 12.644531 28.238281 12.75 C 28.339844 12.851562 28.398438 12.988281 28.398438 13.136719 C 28.398438 13.28125 28.339844 13.417969 28.238281 13.523438 C 28.136719 13.625 27.996094 13.683594 27.851562 13.683594 Z M 27.851562 13.683594 "/><path style=" stroke:none;fill-rule:nonzero;fill:#ffffff;fill-opacity:1;" d="M 26.203125 9.578125 C 26.085938 9.578125 25.96875 9.539062 25.871094 9.464844 C 25.777344 9.390625 25.707031 9.289062 25.675781 9.171875 C 25.644531 9.054688 25.652344 8.933594 25.699219 8.820312 C 25.746094 8.710938 25.828125 8.617188 25.929688 8.554688 L 26.40625 8.28125 C 26.46875 8.246094 26.535156 8.222656 26.609375 8.210938 C 26.679688 8.203125 26.75 8.207031 26.820312 8.226562 C 26.890625 8.246094 26.957031 8.277344 27.015625 8.320312 C 27.070312 8.363281 27.121094 8.417969 27.15625 8.480469 C 27.191406 8.542969 27.214844 8.613281 27.222656 8.683594 C 27.234375 8.757812 27.230469 8.828125 27.210938 8.898438 C 27.191406 8.96875 27.160156 9.035156 27.113281 9.089844 C 27.070312 9.148438 27.015625 9.195312 26.953125 9.230469 L 26.476562 9.503906 C 26.394531 9.550781 26.300781 9.578125 26.203125 9.578125 Z M 26.203125 9.578125 "/><path style=" stroke:none;fill-rule:nonzero;fill:#ffffff;fill-opacity:1;" d="M 23.199219 6.574219 C 23.101562 6.574219 23.007812 6.546875 22.925781 6.5 C 22.84375 6.453125 22.773438 6.382812 22.726562 6.300781 C 22.679688 6.214844 22.652344 6.121094 22.652344 6.027344 C 22.652344 5.929688 22.679688 5.835938 22.726562 5.753906 L 23 5.277344 C 23.035156 5.214844 23.082031 5.160156 23.140625 5.117188 C 23.195312 5.070312 23.261719 5.039062 23.332031 5.019531 C 23.402344 5 23.472656 4.996094 23.546875 5.007812 C 23.617188 5.015625 23.6875 5.039062 23.75 5.074219 C 23.8125 5.109375 23.867188 5.160156 23.910156 5.214844 C 23.953125 5.273438 23.984375 5.339844 24.003906 5.410156 C 24.023438 5.476562 24.027344 5.550781 24.015625 5.621094 C 24.007812 5.695312 23.984375 5.761719 23.949219 5.824219 L 23.675781 6.300781 C 23.625 6.382812 23.554688 6.453125 23.472656 6.5 C 23.390625 6.546875 23.296875 6.574219 23.199219 6.574219 Z M 23.199219 6.574219 "/></g></svg>