<svg xmlns="http://www.w3.org/2000/svg" xmlns:xlink="http://www.w3.org/1999/xlink" width="48" zoomAndPan="magnify" viewBox="0 0 36 36.000001" height="48" preserveAspectRatio="xMidYMid meet" version="1.2"><g id="3bd747f7b4"><path style=" stroke:none;fill-rule:nonzero;fill:#ffffff;fill-opacity:1;" d="M 18.042969 32.734375 C 17.894531 32.734375 17.75 32.675781 17.644531 32.570312 C 17.539062 32.464844 17.480469 32.324219 17.480469 32.175781 L 17.480469 20.511719 L 8.597656 20.511719 C 8.5 20.511719 8.40625 20.484375 8.320312 20.4375 C 8.234375 20.390625 8.164062 20.320312 8.117188 20.234375 C 8.066406 20.152344 8.039062 20.054688 8.039062 19.960938 C 8.035156 19.863281 8.0625 19.765625 8.109375 19.679688 L 17.550781 2.582031 C 17.613281 2.472656 17.707031 2.386719 17.820312 2.335938 C 17.933594 2.289062 18.0625 2.277344 18.183594 2.308594 C 18.300781 2.339844 18.410156 2.410156 18.484375 2.507812 C 18.5625 2.605469 18.601562 2.726562 18.601562 2.851562 L 18.601562 14.515625 L 27.484375 14.515625 C 27.582031 14.515625 27.679688 14.539062 27.761719 14.589844 C 27.847656 14.636719 27.917969 14.707031 27.96875 14.792969 C 28.015625 14.875 28.042969 14.96875 28.046875 15.066406 C 28.046875 15.164062 28.023438 15.261719 27.976562 15.347656 L 18.53125 32.445312 C 18.484375 32.535156 18.414062 32.605469 18.328125 32.65625 C 18.238281 32.707031 18.140625 32.734375 18.042969 32.734375 Z M 9.546875 19.390625 L 18.042969 19.390625 C 18.191406 19.390625 18.332031 19.449219 18.4375 19.554688 C 18.542969 19.660156 18.601562 19.804688 18.601562 19.953125 L 18.601562 30 L 26.535156 15.636719 L 18.042969 15.636719 C 17.894531 15.636719 17.75 15.578125 17.644531 15.472656 C 17.539062 15.367188 17.480469 15.222656 17.480469 15.074219 L 17.480469 5.027344 Z M 9.546875 19.390625 "/></g></svg>