<svg xmlns="http://www.w3.org/2000/svg" xmlns:xlink="http://www.w3.org/1999/xlink" width="48" zoomAndPan="magnify" viewBox="0 0 36 36.000001" height="48" preserveAspectRatio="xMidYMid meet" version="1.2"><g id="842160f4d1"><path style=" stroke:none;fill-rule:nonzero;fill:#ffffff;fill-opacity:1;" d="M 14.714844 30.101562 C 14.578125 30.101562 14.445312 30.050781 14.34375 29.957031 C 14.242188 29.863281 14.179688 29.734375 14.167969 29.597656 C 14.132812 29.136719 13.179688 18.34375 2.007812 15.859375 C 1.886719 15.832031 1.777344 15.765625 1.699219 15.667969 C 1.621094 15.570312 1.578125 15.449219 1.578125 15.324219 C 1.578125 15.199219 1.621094 15.078125 1.699219 14.984375 C 1.777344 14.886719 1.886719 14.816406 2.007812 14.789062 C 13.183594 12.308594 14.136719 1.511719 14.167969 1.054688 C 14.179688 0.914062 14.242188 0.789062 14.34375 0.695312 C 14.445312 0.601562 14.578125 0.546875 14.714844 0.546875 C 14.851562 0.546875 14.984375 0.601562 15.085938 0.695312 C 15.1875 0.789062 15.25 0.914062 15.261719 1.054688 C 15.296875 1.511719 16.25 12.308594 27.421875 14.789062 C 27.542969 14.816406 27.652344 14.886719 27.730469 14.980469 C 27.808594 15.078125 27.847656 15.199219 27.847656 15.324219 C 27.847656 15.449219 27.808594 15.570312 27.730469 15.667969 C 27.652344 15.761719 27.542969 15.832031 27.421875 15.859375 C 16.25 18.339844 15.296875 29.136719 15.261719 29.59375 C 15.253906 29.734375 15.191406 29.863281 15.089844 29.957031 C 14.988281 30.050781 14.855469 30.101562 14.714844 30.101562 Z M 4.167969 15.324219 C 11.121094 17.671875 13.746094 23.386719 14.714844 26.804688 C 15.6875 23.386719 18.316406 17.671875 25.261719 15.324219 C 18.316406 12.976562 15.6875 7.265625 14.714844 3.847656 C 13.746094 7.265625 11.117188 12.976562 4.167969 15.324219 Z M 4.167969 15.324219 "/><path style=" stroke:none;fill-rule:nonzero;fill:#ffffff;fill-opacity:1;" d="M 26.757812 34.480469 C 26.617188 34.480469 26.484375 34.429688 26.382812 34.335938 C 26.28125 34.242188 26.21875 34.113281 26.210938 33.976562 C 26.011719 32.222656 25.253906 30.578125 24.050781 29.289062 C 22.847656 27.996094 21.261719 27.128906 19.527344 26.804688 C 19.402344 26.78125 19.292969 26.710938 19.214844 26.613281 C 19.132812 26.515625 19.089844 26.394531 19.089844 26.269531 C 19.089844 26.144531 19.132812 26.023438 19.214844 25.925781 C 19.292969 25.828125 19.402344 25.757812 19.527344 25.734375 C 21.261719 25.414062 22.847656 24.542969 24.050781 23.25 C 25.253906 21.960938 26.011719 20.316406 26.210938 18.5625 C 26.21875 18.425781 26.28125 18.296875 26.382812 18.207031 C 26.484375 18.113281 26.617188 18.058594 26.757812 18.0625 C 26.894531 18.0625 27.027344 18.113281 27.128906 18.207031 C 27.226562 18.300781 27.289062 18.429688 27.300781 18.566406 C 27.5 20.316406 28.257812 21.960938 29.460938 23.25 C 30.664062 24.542969 32.25 25.414062 33.984375 25.734375 C 34.105469 25.761719 34.21875 25.828125 34.296875 25.925781 C 34.375 26.023438 34.417969 26.144531 34.417969 26.269531 C 34.417969 26.394531 34.375 26.519531 34.296875 26.617188 C 34.21875 26.714844 34.105469 26.78125 33.984375 26.804688 C 32.25 27.128906 30.664062 28 29.460938 29.289062 C 28.257812 30.582031 27.503906 32.222656 27.304688 33.976562 C 27.292969 34.113281 27.230469 34.242188 27.128906 34.335938 C 27.027344 34.429688 26.894531 34.480469 26.757812 34.480469 Z M 21.535156 26.269531 C 22.742188 26.753906 23.832031 27.488281 24.730469 28.421875 C 25.632812 29.359375 26.324219 30.480469 26.757812 31.703125 C 27.191406 30.480469 27.878906 29.359375 28.78125 28.421875 C 29.679688 27.488281 30.769531 26.753906 31.976562 26.269531 C 30.769531 25.789062 29.679688 25.054688 28.78125 24.117188 C 27.878906 23.179688 27.191406 22.0625 26.757812 20.835938 C 26.324219 22.0625 25.632812 23.179688 24.730469 24.117188 C 23.832031 25.054688 22.742188 25.789062 21.535156 26.269531 Z M 21.535156 26.269531 "/></g></svg>