<?xml version="1.0" encoding="UTF-8"?>
<svg xmlns="http://www.w3.org/2000/svg" xmlns:xlink="http://www.w3.org/1999/xlink" width="93px" height="27px" viewBox="0 0 93 27" version="1.1">
<g id="surface1">
<path style=" stroke:none;fill-rule:nonzero;fill:rgb(55.29412%,72.156864%,28.627452%);fill-opacity:1;" d="M 10.507812 1.117188 C 10.695312 1.117188 10.789062 1.210938 10.972656 1.304688 C 9.859375 1.769531 8.742188 2.980469 8.183594 5.585938 L 6.136719 6.144531 C 6.789062 4.28125 8.089844 1.117188 10.507812 1.117188 Z M 11.53125 2.046875 C 11.71875 2.605469 11.902344 3.257812 11.902344 4.28125 C 11.902344 4.375 11.902344 4.375 11.902344 4.46875 L 9.207031 5.214844 C 9.765625 3.257812 10.695312 2.421875 11.53125 2.046875 Z M 13.949219 3.722656 L 12.742188 4.097656 C 12.742188 4.003906 12.742188 3.910156 12.742188 3.816406 C 12.742188 2.980469 12.648438 2.328125 12.460938 1.769531 C 13.113281 1.957031 13.671875 2.792969 13.949219 3.722656 Z M 19.996094 5.214844 C 19.996094 5.121094 19.902344 5.027344 19.808594 5.027344 C 19.621094 5.027344 17.671875 4.839844 17.671875 4.839844 C 17.671875 4.839844 16.273438 3.445312 16.089844 3.351562 C 15.902344 3.164062 15.625 3.257812 15.53125 3.257812 C 15.53125 3.257812 15.253906 3.351562 14.785156 3.539062 C 14.320312 2.234375 13.484375 1.023438 12.089844 1.023438 C 12.089844 1.023438 11.996094 1.023438 11.996094 1.023438 C 11.625 0.464844 11.066406 0.28125 10.601562 0.28125 C 7.253906 0.1875 5.671875 4.375 5.113281 6.515625 C 4.371094 6.703125 3.628906 6.984375 2.789062 7.261719 C 2.046875 7.449219 2.046875 7.542969 1.953125 8.191406 C 1.859375 8.660156 0 23.367188 0 23.367188 L 14.785156 26.160156 L 22.785156 24.394531 C 22.785156 24.394531 19.996094 5.398438 19.996094 5.214844 Z M 19.996094 5.214844 "/>
<path style=" stroke:none;fill-rule:nonzero;fill:rgb(35.294119%,52.549022%,24.313726%);fill-opacity:1;" d="M 19.714844 5.027344 C 19.621094 5.027344 17.671875 4.839844 17.671875 4.839844 C 17.671875 4.839844 16.273438 3.445312 16.089844 3.351562 C 15.996094 3.257812 15.996094 3.257812 15.902344 3.257812 L 14.785156 26.160156 L 22.785156 24.394531 C 22.785156 24.394531 19.996094 5.398438 19.996094 5.214844 C 19.996094 5.121094 19.808594 5.027344 19.714844 5.027344 "/>
<path style=" stroke:none;fill-rule:nonzero;fill:rgb(100%,100%,99.607843%);fill-opacity:1;" d="M 12.089844 9.496094 L 11.066406 12.476562 C 11.066406 12.476562 10.230469 12.011719 9.113281 12.011719 C 7.53125 12.011719 7.441406 12.941406 7.441406 13.21875 C 7.441406 14.523438 10.972656 15.082031 10.972656 18.25 C 10.972656 20.761719 9.394531 22.34375 7.253906 22.34375 C 4.742188 22.34375 3.441406 20.761719 3.441406 20.761719 L 4.09375 18.527344 C 4.09375 18.527344 5.394531 19.644531 6.511719 19.644531 C 7.253906 19.644531 7.53125 19.085938 7.53125 18.621094 C 7.53125 16.851562 4.648438 16.757812 4.648438 13.871094 C 4.648438 11.453125 6.417969 9.125 9.859375 9.125 C 11.4375 9.03125 12.089844 9.496094 12.089844 9.496094 "/>
<path style=" stroke:none;fill-rule:nonzero;fill:rgb(10.196079%,9.803922%,9.803922%);fill-opacity:1;" d="M 32.179688 14.988281 C 31.339844 14.523438 30.96875 14.152344 30.96875 13.6875 C 30.96875 13.035156 31.527344 12.660156 32.457031 12.660156 C 33.480469 12.660156 34.410156 13.128906 34.410156 13.128906 L 35.152344 10.894531 C 35.152344 10.894531 34.503906 10.335938 32.550781 10.335938 C 29.761719 10.335938 27.898438 11.917969 27.898438 14.152344 C 27.898438 15.457031 28.828125 16.386719 29.945312 17.039062 C 30.875 17.597656 31.246094 17.96875 31.246094 18.527344 C 31.246094 19.085938 30.78125 19.644531 29.851562 19.644531 C 28.550781 19.644531 27.25 18.992188 27.25 18.992188 L 26.503906 21.226562 C 26.503906 21.226562 27.621094 21.972656 29.574219 21.972656 C 32.363281 21.972656 34.410156 20.574219 34.410156 18.0625 C 34.410156 16.664062 33.386719 15.640625 32.179688 14.988281 M 43.429688 10.242188 C 42.035156 10.242188 40.921875 10.894531 40.082031 11.917969 L 41.292969 5.585938 L 38.128906 5.585938 L 35.0625 21.691406 L 38.222656 21.691406 L 39.246094 16.199219 C 39.617188 14.152344 40.734375 12.847656 41.757812 12.847656 C 42.5 12.847656 42.78125 13.3125 42.78125 14.058594 C 42.78125 14.523438 42.78125 14.988281 42.6875 15.457031 L 41.476562 21.785156 L 44.640625 21.785156 L 45.847656 15.269531 C 45.941406 14.617188 46.035156 13.78125 46.035156 13.21875 C 46.035156 11.359375 45.105469 10.242188 43.429688 10.242188 M 51.523438 19.457031 C 50.40625 19.457031 50.035156 18.527344 50.035156 17.410156 C 50.035156 15.640625 50.964844 12.660156 52.636719 12.660156 C 53.753906 12.660156 54.125 13.59375 54.125 14.523438 C 54.125 16.574219 53.195312 19.457031 51.523438 19.457031 Z M 53.101562 10.242188 C 49.289062 10.242188 46.777344 13.6875 46.777344 17.503906 C 46.777344 19.925781 48.265625 21.878906 51.148438 21.878906 C 54.871094 21.878906 57.382812 18.527344 57.382812 14.617188 C 57.382812 12.382812 56.078125 10.242188 53.101562 10.242188 Z M 62.402344 19.550781 C 61.566406 19.550781 61.101562 19.085938 61.101562 19.085938 L 61.660156 16.105469 C 62.03125 14.152344 63.054688 12.847656 64.171875 12.847656 C 65.101562 12.847656 65.472656 13.78125 65.472656 14.617188 C 65.378906 16.664062 64.171875 19.550781 62.402344 19.550781 Z M 65.472656 10.242188 C 63.332031 10.242188 62.125 12.101562 62.125 12.101562 L 62.308594 10.425781 L 59.519531 10.425781 C 59.425781 11.542969 59.148438 13.3125 58.867188 14.617188 L 56.636719 26.160156 L 59.800781 26.160156 L 60.636719 21.507812 L 60.730469 21.507812 C 60.730469 21.507812 61.378906 21.878906 62.589844 21.878906 C 66.308594 21.878906 68.726562 18.0625 68.726562 14.246094 C 68.726562 12.195312 67.796875 10.242188 65.472656 10.242188 Z M 73.191406 5.773438 C 72.167969 5.773438 71.425781 6.609375 71.425781 7.632812 C 71.425781 8.566406 71.980469 9.21875 72.910156 9.21875 C 73.933594 9.21875 74.773438 8.566406 74.773438 7.355469 C 74.773438 6.425781 74.121094 5.773438 73.191406 5.773438 M 68.820312 21.691406 L 71.980469 21.691406 L 74.121094 10.519531 L 70.960938 10.519531 Z M 82.117188 10.519531 L 79.886719 10.519531 L 79.980469 9.960938 C 80.164062 8.84375 80.816406 7.914062 81.839844 7.914062 C 82.398438 7.914062 82.863281 8.101562 82.863281 8.101562 L 83.515625 5.585938 C 83.515625 5.585938 82.957031 5.308594 81.839844 5.308594 C 80.722656 5.308594 79.609375 5.585938 78.769531 6.332031 C 77.65625 7.261719 77.191406 8.566406 76.910156 9.867188 L 76.816406 10.425781 L 75.328125 10.425781 L 74.863281 12.847656 L 76.351562 12.847656 L 74.679688 21.691406 L 77.839844 21.691406 L 79.515625 12.847656 L 81.652344 12.847656 Z M 89.652344 10.519531 C 89.652344 10.519531 87.699219 15.457031 86.769531 18.15625 C 86.675781 17.316406 86.023438 10.519531 86.023438 10.519531 L 82.675781 10.519531 L 84.535156 20.761719 C 84.535156 20.949219 84.535156 21.132812 84.445312 21.320312 C 84.070312 22.066406 83.421875 22.71875 82.769531 23.183594 C 82.210938 23.648438 81.46875 23.925781 81.003906 24.113281 L 81.839844 26.8125 C 82.492188 26.71875 83.792969 26.160156 84.910156 25.136719 C 86.304688 23.835938 87.699219 21.691406 89 18.898438 L 92.8125 10.613281 Z M 89.652344 10.519531 "/>
</g>
</svg>
