<?xml version="1.0" encoding="UTF-8"?>
<svg xmlns="http://www.w3.org/2000/svg" xmlns:xlink="http://www.w3.org/1999/xlink" width="54px" height="32px" viewBox="0 0 53 32" version="1.1">
<g id="surface1">
<path style=" stroke:none;fill-rule:nonzero;fill:rgb(60.784316%,36.078432%,56.078434%);fill-opacity:1;" d="M 4.9375 0.0703125 L 48.0625 0.0703125 C 50.789062 0.0703125 53 2.300781 53 5.058594 L 53 21.691406 C 53 24.445312 50.789062 26.679688 48.0625 26.679688 L 32.597656 26.679688 L 34.71875 31.929688 L 25.382812 26.679688 L 4.960938 26.679688 C 2.230469 26.679688 0.0234375 24.445312 0.0234375 21.691406 L 0.0234375 5.058594 C 0 2.324219 2.207031 0.0703125 4.9375 0.0703125 Z M 4.9375 0.0703125 "/>
<path style=" stroke:none;fill-rule:nonzero;fill:rgb(100%,100%,100%);fill-opacity:1;" d="M 3.039062 4.617188 C 3.339844 4.203125 3.792969 3.984375 4.394531 3.941406 C 5.492188 3.855469 6.117188 4.378906 6.269531 5.507812 C 6.9375 10.054688 7.667969 13.90625 8.445312 17.0625 L 13.160156 7.988281 C 13.589844 7.164062 14.128906 6.726562 14.777344 6.683594 C 15.722656 6.617188 16.304688 7.226562 16.542969 8.511719 C 17.078125 11.40625 17.769531 13.863281 18.585938 15.953125 C 19.148438 10.425781 20.09375 6.445312 21.429688 3.984375 C 21.753906 3.375 22.226562 3.070312 22.851562 3.027344 C 23.347656 2.984375 23.800781 3.136719 24.207031 3.464844 C 24.617188 3.789062 24.832031 4.203125 24.875 4.703125 C 24.898438 5.09375 24.832031 5.421875 24.660156 5.75 C 23.820312 7.316406 23.132812 9.949219 22.570312 13.601562 C 22.035156 17.148438 21.839844 19.914062 21.96875 21.894531 C 22.011719 22.4375 21.925781 22.914062 21.710938 23.328125 C 21.453125 23.808594 21.0625 24.070312 20.570312 24.113281 C 20.007812 24.15625 19.425781 23.894531 18.867188 23.308594 C 16.863281 21.238281 15.269531 18.152344 14.109375 14.039062 C 12.707031 16.824219 11.675781 18.910156 11.007812 20.304688 C 9.734375 22.761719 8.660156 24.027344 7.753906 24.089844 C 7.171875 24.132812 6.679688 23.632812 6.246094 22.589844 C 5.148438 19.738281 3.964844 14.234375 2.695312 6.074219 C 2.609375 5.507812 2.738281 5.007812 3.039062 4.617188 Z M 49.320312 8.03125 C 48.542969 6.664062 47.402344 5.835938 45.875 5.507812 C 45.464844 5.421875 45.078125 5.378906 44.710938 5.378906 C 42.644531 5.378906 40.964844 6.464844 39.648438 8.640625 C 38.53125 10.492188 37.96875 12.535156 37.96875 14.777344 C 37.96875 16.453125 38.3125 17.890625 39.003906 19.085938 C 39.777344 20.457031 40.921875 21.285156 42.449219 21.609375 C 42.859375 21.695312 43.246094 21.742188 43.613281 21.742188 C 45.703125 21.742188 47.382812 20.652344 48.671875 18.476562 C 49.792969 16.605469 50.351562 14.558594 50.351562 12.320312 C 50.375 10.621094 50.007812 9.207031 49.320312 8.03125 Z M 46.605469 14.058594 C 46.304688 15.496094 45.765625 16.5625 44.96875 17.28125 C 44.34375 17.847656 43.761719 18.085938 43.226562 17.976562 C 42.707031 17.867188 42.277344 17.410156 41.953125 16.5625 C 41.695312 15.886719 41.566406 15.214844 41.566406 14.582031 C 41.566406 14.039062 41.609375 13.496094 41.71875 12.992188 C 41.910156 12.101562 42.277344 11.230469 42.859375 10.40625 C 43.570312 9.339844 44.324219 8.902344 45.097656 9.054688 C 45.613281 9.164062 46.046875 9.621094 46.367188 10.46875 C 46.628906 11.144531 46.757812 11.820312 46.757812 12.449219 C 46.757812 13.015625 46.714844 13.558594 46.605469 14.058594 Z M 35.835938 8.03125 C 35.0625 6.664062 33.898438 5.835938 32.390625 5.507812 C 31.984375 5.421875 31.59375 5.378906 31.230469 5.378906 C 29.160156 5.378906 27.480469 6.464844 26.167969 8.640625 C 25.046875 10.492188 24.488281 12.535156 24.488281 14.777344 C 24.488281 16.453125 24.832031 17.890625 25.523438 19.085938 C 26.296875 20.457031 27.4375 21.285156 28.96875 21.609375 C 29.378906 21.695312 29.765625 21.742188 30.128906 21.742188 C 32.21875 21.742188 33.898438 20.652344 35.191406 18.476562 C 36.3125 16.605469 36.871094 14.558594 36.871094 12.320312 C 36.871094 10.621094 36.527344 9.207031 35.835938 8.03125 Z M 33.101562 14.058594 C 32.800781 15.496094 32.261719 16.5625 31.464844 17.28125 C 30.839844 17.847656 30.261719 18.085938 29.722656 17.976562 C 29.203125 17.867188 28.773438 17.410156 28.449219 16.5625 C 28.191406 15.886719 28.0625 15.214844 28.0625 14.582031 C 28.0625 14.039062 28.105469 13.496094 28.214844 12.992188 C 28.40625 12.101562 28.773438 11.230469 29.355469 10.40625 C 30.066406 9.339844 30.820312 8.902344 31.59375 9.054688 C 32.113281 9.164062 32.542969 9.621094 32.867188 10.46875 C 33.125 11.144531 33.253906 11.820312 33.253906 12.449219 C 33.273438 13.015625 33.210938 13.558594 33.101562 14.058594 Z M 33.101562 14.058594 "/>
</g>
</svg>
