<?xml version="1.0" encoding="UTF-8"?>
<svg xmlns="http://www.w3.org/2000/svg" xmlns:xlink="http://www.w3.org/1999/xlink" width="35px" height="35px" viewBox="0 0 35 35" version="1.1">
<defs>
<clipPath id="clip1">
  <path d="M 0.878906 0.402344 L 34.121094 0.402344 L 34.121094 33.652344 L 0.878906 33.652344 Z M 0.878906 0.402344 "/>
</clipPath>
<clipPath id="clip2">
  <path d="M 17.5 0.402344 C 8.316406 0.402344 0.878906 7.847656 0.878906 17.023438 C 0.878906 26.207031 8.316406 33.652344 17.5 33.652344 C 26.683594 33.652344 34.121094 26.207031 34.121094 17.023438 C 34.121094 7.847656 26.683594 0.402344 17.5 0.402344 Z M 17.5 0.402344 "/>
</clipPath>
<clipPath id="clip3">
  <path d="M 9.855469 5.832031 L 26 5.832031 L 26 29.167969 L 9.855469 29.167969 Z M 9.855469 5.832031 "/>
</clipPath>
</defs>
<g id="surface1">
<g clip-path="url(#clip1)" clip-rule="nonzero">
<g clip-path="url(#clip2)" clip-rule="nonzero">
<path style=" stroke:none;fill-rule:nonzero;fill:rgb(94.509804%,53.333336%,50.588238%);fill-opacity:1;" d="M 0.878906 0.402344 L 34.121094 0.402344 L 34.121094 33.652344 L 0.878906 33.652344 Z M 0.878906 0.402344 "/>
</g>
</g>
<g clip-path="url(#clip3)" clip-rule="nonzero">
<path style=" stroke:none;fill-rule:nonzero;fill:rgb(100%,100%,100%);fill-opacity:1;" d="M 20.082031 20.875 C 19.292969 21.101562 18.507812 20.503906 18.507812 19.679688 L 18.507812 7.023438 C 18.507812 6.316406 19.164062 5.789062 19.851562 5.949219 C 23.246094 6.75 25.777344 9.800781 25.777344 13.4375 C 25.777344 16.953125 23.40625 19.925781 20.082031 20.875 Z M 17.121094 21.542969 L 17.121094 7.023438 C 17.121094 6.316406 16.464844 5.789062 15.773438 5.949219 C 12.378906 6.75 9.847656 9.800781 9.847656 13.4375 L 9.847656 28.230469 C 9.847656 28.78125 10.351562 29.199219 10.898438 29.09375 C 14.4375 28.40625 17.121094 25.285156 17.121094 21.542969 Z M 17.121094 21.542969 "/>
</g>
</g>
</svg>
