<?xml version="1.0" encoding="UTF-8"?>
<svg xmlns="http://www.w3.org/2000/svg" xmlns:xlink="http://www.w3.org/1999/xlink" width="35px" height="35px" viewBox="0 0 35 35" version="1.1">
<defs>
<clipPath id="clip1">
  <path d="M 9.332031 5 L 18 5 L 18 17 L 9.332031 17 Z M 9.332031 5 "/>
</clipPath>
<clipPath id="clip2">
  <path d="M 8.261719 0.933594 L 33.5 7.695312 L 26.738281 32.933594 L 1.5 26.171875 Z M 8.261719 0.933594 "/>
</clipPath>
<clipPath id="clip3">
  <path d="M 17 3.5 L 25 3.5 L 25 17 L 17 17 Z M 17 3.5 "/>
</clipPath>
<clipPath id="clip4">
  <path d="M 8.261719 0.933594 L 33.5 7.695312 L 26.738281 32.933594 L 1.5 26.171875 Z M 8.261719 0.933594 "/>
</clipPath>
<clipPath id="clip5">
  <path d="M 17.5 8.167969 L 29 8.167969 L 29 17.5 L 17.5 17.5 Z M 17.5 8.167969 "/>
</clipPath>
<clipPath id="clip6">
  <path d="M 8.261719 0.933594 L 33.5 7.695312 L 26.738281 32.933594 L 1.5 26.171875 Z M 8.261719 0.933594 "/>
</clipPath>
<clipPath id="clip7">
  <path d="M 17.5 16.332031 L 31 16.332031 L 31 24.5 L 17.5 24.5 Z M 17.5 16.332031 "/>
</clipPath>
<clipPath id="clip8">
  <path d="M 8.261719 0.933594 L 33.5 7.695312 L 26.738281 32.933594 L 1.5 26.171875 Z M 8.261719 0.933594 "/>
</clipPath>
<clipPath id="clip9">
  <path d="M 17 17 L 25.667969 17 L 25.667969 29 L 17 29 Z M 17 17 "/>
</clipPath>
<clipPath id="clip10">
  <path d="M 8.261719 0.933594 L 33.5 7.695312 L 26.738281 32.933594 L 1.5 26.171875 Z M 8.261719 0.933594 "/>
</clipPath>
<clipPath id="clip11">
  <path d="M 10 17 L 18 17 L 18 30 L 10 30 Z M 10 17 "/>
</clipPath>
<clipPath id="clip12">
  <path d="M 8.261719 0.933594 L 33.5 7.695312 L 26.738281 32.933594 L 1.5 26.171875 Z M 8.261719 0.933594 "/>
</clipPath>
<clipPath id="clip13">
  <path d="M 6 16.332031 L 17.5 16.332031 L 17.5 25 L 6 25 Z M 6 16.332031 "/>
</clipPath>
<clipPath id="clip14">
  <path d="M 8.261719 0.933594 L 33.5 7.695312 L 26.738281 32.933594 L 1.5 26.171875 Z M 8.261719 0.933594 "/>
</clipPath>
<clipPath id="clip15">
  <path d="M 4 9.332031 L 17.5 9.332031 L 17.5 17.5 L 4 17.5 Z M 4 9.332031 "/>
</clipPath>
<clipPath id="clip16">
  <path d="M 8.261719 0.933594 L 33.5 7.695312 L 26.738281 32.933594 L 1.5 26.171875 Z M 8.261719 0.933594 "/>
</clipPath>
</defs>
<g id="surface1">
<g clip-path="url(#clip1)" clip-rule="nonzero">
<g clip-path="url(#clip2)" clip-rule="nonzero">
<path style=" stroke:none;fill-rule:nonzero;fill:rgb(100%,65.098041%,61.960787%);fill-opacity:1;" d="M 17.328125 16.726562 C 17.332031 16.734375 17.335938 16.742188 17.332031 16.753906 C 17.332031 16.761719 17.328125 16.765625 17.316406 16.769531 C 17.3125 16.78125 17.304688 16.78125 17.296875 16.78125 C 17.285156 16.78125 17.277344 16.78125 17.273438 16.769531 C 15.976562 15.652344 7.296875 8.003906 9.929688 6.230469 C 12.375 4.589844 16.4375 6.367188 17.539062 6.898438 C 17.554688 6.902344 17.5625 6.917969 17.570312 6.929688 C 17.578125 6.945312 17.578125 6.957031 17.574219 6.972656 C 17.570312 6.992188 17.558594 7 17.550781 7.007812 C 17.535156 7.019531 17.523438 7.023438 17.507812 7.023438 C 16.402344 6.964844 12.773438 6.9375 13.570312 9.136719 C 14.410156 11.433594 16.804688 15.78125 17.328125 16.726562 Z M 17.328125 16.726562 "/>
</g>
</g>
<g clip-path="url(#clip3)" clip-rule="nonzero">
<g clip-path="url(#clip4)" clip-rule="nonzero">
<path style=" stroke:none;fill-rule:nonzero;fill:rgb(100%,65.098041%,61.960787%);fill-opacity:1;" d="M 17.527344 16.664062 C 17.527344 16.675781 17.523438 16.683594 17.515625 16.6875 C 17.503906 16.699219 17.496094 16.699219 17.484375 16.699219 C 17.476562 16.699219 17.46875 16.691406 17.464844 16.683594 C 17.453125 16.679688 17.453125 16.664062 17.453125 16.65625 C 17.332031 14.949219 16.601562 3.40625 19.71875 4.007812 C 22.605469 4.570312 24.226562 8.714844 24.621094 9.871094 C 24.628906 9.882812 24.628906 9.898438 24.621094 9.910156 C 24.617188 9.925781 24.609375 9.9375 24.59375 9.949219 C 24.582031 9.953125 24.566406 9.957031 24.554688 9.953125 C 24.539062 9.953125 24.527344 9.945312 24.519531 9.933594 C 23.773438 9.113281 21.226562 6.527344 20.238281 8.644531 C 19.203125 10.859375 17.824219 15.625 17.527344 16.664062 Z M 17.527344 16.664062 "/>
</g>
</g>
<g clip-path="url(#clip5)" clip-rule="nonzero">
<g clip-path="url(#clip6)" clip-rule="nonzero">
<path style=" stroke:none;fill-rule:nonzero;fill:rgb(100%,65.098041%,61.960787%);fill-opacity:1;" d="M 17.710938 16.765625 C 17.699219 16.765625 17.691406 16.769531 17.683594 16.765625 C 17.679688 16.765625 17.667969 16.761719 17.664062 16.753906 C 17.65625 16.746094 17.65625 16.738281 17.65625 16.730469 C 17.65625 16.71875 17.65625 16.710938 17.664062 16.707031 C 18.78125 15.414062 26.433594 6.730469 28.203125 9.363281 C 29.851562 11.808594 28.066406 15.871094 27.535156 16.976562 C 27.53125 16.988281 27.515625 17 27.503906 17.007812 C 27.488281 17.011719 27.476562 17.011719 27.460938 17.007812 C 27.449219 17.007812 27.433594 17 27.425781 16.984375 C 27.417969 16.972656 27.410156 16.957031 27.410156 16.945312 C 27.472656 15.835938 27.5 12.207031 25.300781 13.007812 C 23.003906 13.84375 18.652344 16.238281 17.710938 16.765625 Z M 17.710938 16.765625 "/>
</g>
</g>
<g clip-path="url(#clip7)" clip-rule="nonzero">
<g clip-path="url(#clip8)" clip-rule="nonzero">
<path style=" stroke:none;fill-rule:nonzero;fill:rgb(100%,65.098041%,61.960787%);fill-opacity:1;" d="M 17.769531 16.960938 C 17.757812 16.960938 17.75 16.957031 17.746094 16.949219 C 17.738281 16.945312 17.738281 16.929688 17.738281 16.921875 C 17.738281 16.910156 17.742188 16.902344 17.75 16.898438 C 17.757812 16.894531 17.769531 16.890625 17.777344 16.890625 C 19.484375 16.765625 31.035156 16.035156 30.425781 19.152344 C 29.855469 22.039062 25.726562 23.660156 24.558594 24.058594 C 24.546875 24.0625 24.527344 24.0625 24.511719 24.058594 C 24.5 24.054688 24.492188 24.042969 24.480469 24.03125 C 24.472656 24.015625 24.472656 24.003906 24.472656 23.988281 C 24.476562 23.972656 24.480469 23.957031 24.496094 23.949219 C 25.316406 23.207031 27.898438 20.664062 25.78125 19.667969 C 23.578125 18.640625 18.808594 17.257812 17.769531 16.960938 Z M 17.769531 16.960938 "/>
</g>
</g>
<g clip-path="url(#clip9)" clip-rule="nonzero">
<g clip-path="url(#clip10)" clip-rule="nonzero">
<path style=" stroke:none;fill-rule:nonzero;fill:rgb(100%,65.098041%,61.960787%);fill-opacity:1;" d="M 17.671875 17.144531 C 17.667969 17.136719 17.667969 17.125 17.667969 17.121094 C 17.667969 17.113281 17.671875 17.101562 17.683594 17.097656 C 17.6875 17.09375 17.695312 17.089844 17.703125 17.089844 C 17.714844 17.089844 17.722656 17.09375 17.726562 17.097656 C 19.023438 18.21875 27.703125 25.867188 25.070312 27.640625 C 22.632812 29.285156 18.5625 27.507812 17.460938 26.96875 C 17.445312 26.964844 17.4375 26.953125 17.429688 26.9375 C 17.421875 26.925781 17.421875 26.910156 17.425781 26.898438 C 17.429688 26.882812 17.441406 26.871094 17.449219 26.859375 C 17.464844 26.851562 17.476562 26.847656 17.496094 26.851562 C 18.597656 26.90625 22.226562 26.933594 21.429688 24.738281 C 20.589844 22.441406 18.195312 18.085938 17.671875 17.144531 Z M 17.671875 17.144531 "/>
</g>
</g>
<g clip-path="url(#clip11)" clip-rule="nonzero">
<g clip-path="url(#clip12)" clip-rule="nonzero">
<path style=" stroke:none;fill-rule:nonzero;fill:rgb(100%,65.098041%,61.960787%);fill-opacity:1;" d="M 17.472656 17.203125 C 17.472656 17.199219 17.476562 17.195312 17.476562 17.191406 C 17.476562 17.183594 17.480469 17.183594 17.484375 17.179688 C 17.492188 17.175781 17.496094 17.175781 17.5 17.171875 C 17.503906 17.171875 17.507812 17.171875 17.515625 17.171875 C 17.519531 17.171875 17.523438 17.175781 17.527344 17.175781 C 17.53125 17.179688 17.535156 17.179688 17.535156 17.183594 C 17.539062 17.191406 17.539062 17.195312 17.546875 17.199219 C 17.546875 17.203125 17.546875 17.207031 17.546875 17.210938 C 17.667969 18.917969 18.398438 30.46875 15.28125 29.859375 C 12.394531 29.289062 10.777344 25.160156 10.378906 23.992188 C 10.371094 23.980469 10.371094 23.960938 10.378906 23.949219 C 10.382812 23.933594 10.390625 23.925781 10.40625 23.917969 C 10.417969 23.90625 10.433594 23.90625 10.449219 23.90625 C 10.464844 23.910156 10.476562 23.917969 10.488281 23.929688 C 11.230469 24.75 13.773438 27.335938 14.765625 25.214844 C 15.789062 23.015625 17.175781 18.242188 17.472656 17.203125 Z M 17.472656 17.203125 "/>
</g>
</g>
<g clip-path="url(#clip13)" clip-rule="nonzero">
<g clip-path="url(#clip14)" clip-rule="nonzero">
<path style=" stroke:none;fill-rule:nonzero;fill:rgb(100%,65.098041%,61.960787%);fill-opacity:1;" d="M 17.289062 17.109375 C 17.300781 17.101562 17.308594 17.101562 17.316406 17.101562 C 17.320312 17.101562 17.332031 17.109375 17.335938 17.117188 C 17.34375 17.121094 17.34375 17.128906 17.34375 17.140625 C 17.34375 17.148438 17.339844 17.15625 17.335938 17.164062 C 16.21875 18.457031 8.566406 27.136719 6.796875 24.503906 C 5.15625 22.066406 6.933594 17.996094 7.464844 16.894531 C 7.46875 16.878906 7.484375 16.871094 7.496094 16.867188 C 7.511719 16.855469 7.523438 16.855469 7.539062 16.863281 C 7.550781 16.867188 7.566406 16.875 7.574219 16.882812 C 7.582031 16.898438 7.589844 16.910156 7.589844 16.929688 C 7.527344 18.03125 7.5 21.664062 9.703125 20.863281 C 12 20.023438 16.347656 17.632812 17.289062 17.109375 Z M 17.289062 17.109375 "/>
</g>
</g>
<g clip-path="url(#clip15)" clip-rule="nonzero">
<g clip-path="url(#clip16)" clip-rule="nonzero">
<path style=" stroke:none;fill-rule:nonzero;fill:rgb(100%,65.098041%,61.960787%);fill-opacity:1;" d="M 17.230469 16.90625 C 17.234375 16.90625 17.242188 16.910156 17.246094 16.910156 C 17.25 16.917969 17.253906 16.917969 17.253906 16.921875 C 17.257812 16.925781 17.257812 16.929688 17.261719 16.933594 C 17.261719 16.9375 17.261719 16.945312 17.261719 16.949219 C 17.261719 16.953125 17.261719 16.957031 17.257812 16.960938 C 17.257812 16.964844 17.253906 16.972656 17.25 16.972656 C 17.246094 16.976562 17.242188 16.980469 17.234375 16.980469 C 17.230469 16.980469 17.226562 16.980469 17.222656 16.980469 C 15.511719 17.101562 3.96875 17.832031 4.570312 14.714844 C 5.136719 11.832031 9.273438 10.210938 10.4375 9.8125 C 10.449219 9.808594 10.464844 9.808594 10.476562 9.8125 C 10.492188 9.816406 10.503906 9.824219 10.507812 9.839844 C 10.519531 9.851562 10.523438 9.867188 10.519531 9.878906 C 10.519531 9.894531 10.507812 9.90625 10.5 9.921875 C 9.679688 10.660156 7.089844 13.207031 9.210938 14.195312 C 11.425781 15.226562 16.191406 16.617188 17.230469 16.90625 Z M 17.230469 16.90625 "/>
</g>
</g>
</g>
</svg>
