<?xml version="1.0" encoding="UTF-8"?>
<svg xmlns="http://www.w3.org/2000/svg" xmlns:xlink="http://www.w3.org/1999/xlink" width="35px" height="35px" viewBox="0 0 35 35" version="1.1">
<defs>
<clipPath id="clip1">
  <path d="M 1.664062 1.1875 L 33.160156 1.1875 L 33.160156 32.691406 L 1.664062 32.691406 Z M 1.664062 1.1875 "/>
</clipPath>
<clipPath id="clip2">
  <path d="M 17.414062 1.1875 C 8.710938 1.1875 1.664062 8.242188 1.664062 16.9375 C 1.664062 25.636719 8.710938 32.691406 17.414062 32.691406 C 26.113281 32.691406 33.160156 25.636719 33.160156 16.9375 C 33.160156 8.242188 26.113281 1.1875 17.414062 1.1875 Z M 17.414062 1.1875 "/>
</clipPath>
<clipPath id="clip3">
  <path d="M 10.429688 5.832031 L 26 5.832031 L 26 28.492188 L 10.429688 28.492188 Z M 10.429688 5.832031 "/>
</clipPath>
</defs>
<g id="surface1">
<g clip-path="url(#clip1)" clip-rule="nonzero">
<g clip-path="url(#clip2)" clip-rule="nonzero">
<path style=" stroke:none;fill-rule:nonzero;fill:rgb(100%,65.098041%,61.960787%);fill-opacity:1;" d="M 1.664062 1.1875 L 33.160156 1.1875 L 33.160156 32.691406 L 1.664062 32.691406 Z M 1.664062 1.1875 "/>
</g>
</g>
<g clip-path="url(#clip3)" clip-rule="nonzero">
<path style=" stroke:none;fill-rule:nonzero;fill:rgb(100%,100%,100%);fill-opacity:1;" d="M 20.347656 20.417969 C 19.582031 20.636719 18.820312 20.054688 18.820312 19.257812 L 18.820312 6.988281 C 18.820312 6.300781 19.460938 5.789062 20.125 5.949219 C 23.417969 6.722656 25.871094 9.679688 25.871094 13.203125 C 25.871094 16.613281 23.574219 19.496094 20.347656 20.417969 Z M 17.472656 21.070312 L 17.472656 6.988281 C 17.472656 6.300781 16.839844 5.789062 16.171875 5.949219 C 12.878906 6.722656 10.425781 9.679688 10.425781 13.203125 L 10.425781 27.550781 C 10.425781 28.089844 10.914062 28.492188 11.441406 28.386719 C 14.875 27.722656 17.472656 24.691406 17.472656 21.070312 Z M 17.472656 21.070312 "/>
</g>
</g>
</svg>
