<?xml version="1.0" encoding="UTF-8"?>
<svg xmlns="http://www.w3.org/2000/svg" xmlns:xlink="http://www.w3.org/1999/xlink" width="16px" height="16px" viewBox="0 0 16 16" version="1.1">
<g id="surface1">
<path style=" stroke:none;fill-rule:evenodd;fill:rgb(100%,65.098041%,61.960787%);fill-opacity:1;" d="M 8.003906 0.972656 C 11.742188 0.972656 14.777344 4.003906 14.777344 7.746094 C 14.777344 11.484375 11.742188 14.519531 8.003906 14.519531 C 4.261719 14.519531 1.230469 11.484375 1.230469 7.746094 C 1.230469 4.003906 4.261719 0.972656 8.003906 0.972656 Z M 6.597656 9.945312 L 4.9375 8.285156 C 4.652344 8.003906 4.652344 7.542969 4.9375 7.261719 C 5.222656 6.976562 5.683594 6.980469 5.964844 7.261719 L 7.132812 8.429688 L 10.042969 5.519531 C 10.324219 5.238281 10.785156 5.238281 11.070312 5.519531 C 11.351562 5.804688 11.351562 6.265625 11.070312 6.546875 L 7.644531 9.972656 C 7.363281 10.253906 6.902344 10.253906 6.617188 9.972656 C 6.609375 9.960938 6.605469 9.953125 6.597656 9.945312 Z M 6.597656 9.945312 "/>
</g>
</svg>
